<svg xmlns="http://www.w3.org/2000/svg" height="20" viewBox="0 96 960 960" width="20"><path fill="#FFFFFF" d="m57 1016-70-71 139-134-8-156q-3-24 4.5-41t19.5-29l114-112q13-13 29-19t32-6q16 0 31.5 5.5T377 472l99 101q25 25 50.5 34t45.5 9v98q-42 0-87.5-20.5T407 641l-51-51-84 84 112 114v224h-98V832l-59-58v76L57 1016Zm511-4V756l103-113-20-107q-14 14-32 22t-38 11q-28-4-46-12t-27-20l-36-36q28-1 54.5-6t60.5-40l73-71q23-24 56-32t64 5l204 81v230h-98V504l-54-19 106 527h-99l-66-334-107 118v216h-98Zm-96-560q-35 0-57.5-22.5T392 372q0-35 22.5-57.5T472 292q35 0 57.5 22.5T552 372q0 35-22.5 57.5T472 452Zm174-122q-35 0-57.5-22.5T566 250q0-35 22.5-57.5T646 170q35 0 57.5 22.5T726 250q0 35-22.5 57.5T646 330Z"/></svg>