<svg xmlns="http://www.w3.org/2000/svg" height="20" viewBox="0 96 960 960" width="20"><path d="M743 958 636 850l-85 84-34-34q-29-29-29-69t29-69l152-152q29-29 69-29t69 29l34 34-84 85 108 107q15 15 15 34.5T865 905l-52 53q-15 15-35 15t-35-15Zm134-618L448 769l7 8q19 29 16 63t-29 60l-34 34-84-84-108 109q-15 15-34.5 15T147 959l-53-53q-15-15-15-34.5T94 837l108-108-84-85 33-33q26-26 60.5-29.5T275 598l10 9 430-431h162v164ZM353 471l13-14 12-11-12 11-13 14Zm-69 68L83 338V176h164l200 200-69 70-172-172h-25v23l172 174-69 68Zm96 161 399-401v-25h-23L356 676l24 24Zm0 0-11-13-13-11 13 11 11 13Z"/></svg>