<svg xmlns="http://www.w3.org/2000/svg" height="20" viewBox="0 96 960 960" width="20"><path fill="#FFFFFF" d="M72 980q29-80 37-161t10-153q-40-17-65.5-52T28 538v-94q120-27 243.5-110T480 168q86 86 207.5 167T932 444v94q0 41-26 76t-66 52q2 72 10.5 153T888 980H72Zm221-540h374q-73-42-116.5-79T480 298q-28 26-71 63t-116 79Zm289 139q20 0 36-11.5t16-29.5H530q0 18 15.5 29.5T582 579Zm-202 0q20 0 36-11.5t16-29.5H328q0 18 15.5 29.5T380 579Zm-202 0q21 0 36.5-11.5T230 538H126q0 18 16 29.5t36 11.5Zm22 303h86q8-54 13.5-110.5T308 658q-7-1-16.5-8.5T278 640q-17 12-31 19t-30 12q-2 51-5 105.5T200 882Zm185 0h191q-7-51-11.5-104T555 674q-22-5-40.5-13T480 641q-17 12-35 20t-40 13q-5 51-9 104t-11 104Zm289 0h86q-9-51-12-105t-5-104q-16-5-31.5-13.5T682 640q-5 4-13.5 10t-16.5 7q3 57 9 113.5T674 882Zm110-303q20 0 36-11.5t16-29.5H732q0 18 15.5 29.5T784 579Z"/></svg>