<svg xmlns="http://www.w3.org/2000/svg" height="20" viewBox="0 96 960 960" width="20"><path fill="#FFFFFF" d="m101 819-80-58 207-337 120 144 170-266 141 199q-27 2-53 7.5T556 527l-35-48-161 255-119-143-140 228Zm770 217L746 911q-21 12-42.5 18t-45.5 6q-76 0-128.5-52.5T477 754q0-76 52.5-128.5T658 573q76 0 128.5 52.5T839 754q0 24-6 46t-18 42l125 125-69 69ZM658 837q34 0 58.5-24.5T741 754q0-34-24.5-58.5T658 671q-34 0-58.5 24.5T575 754q0 34 24.5 58.5T658 837Zm89-323q-26-10-54-12.5t-55-1.5l221-337 81 58-193 293Z"/></svg>