<svg xmlns="http://www.w3.org/2000/svg" height="20" viewBox="0 96 960 960" width="20"><path d="M37 925V802q0-32.78 14.688-58.744Q66.374 717.292 92 702q58-35 124.768-53.5T356 630q72.124 0 138.562 18.5Q561 667 619 702q25.625 15.292 40.312 41.256Q674 769.22 674 802v123H37Zm714 0V798q0-40-18-85.5T678 638q51 8 98 23.5t88 40.5q27.838 16.768 43.419 43.057Q923 771.346 923 798v127H751ZM355 569q-71.55 0-121.775-50.225Q183 468.55 183 397q0-71.55 50.225-121.775Q283.45 225 355 225q71.55 0 121.775 50.225Q527 325.45 527 397q0 71.55-50.225 121.775Q426.55 569 355 569Zm421-172q0 71.55-50.225 121.775Q675.55 569 604 569q-12 0-28-1.5t-28-5.5q27-35 41.5-76.35Q604 444.3 604 397q0-47.3-14.5-88.65Q575 267 548 232q14-4 28-5.5t28-1.5q71.55 0 121.775 50.225Q776 325.45 776 397ZM135 827h441v-25q0-6.471-1.025-9.765Q573.95 788.941 572 788q-48-27-105-43.5T355.5 728Q301 728 244 744t-105 44q-1.95.826-2.975 3.913Q135 795 135 801.907V827Zm220.336-356Q386 471 407.5 449.164q21.5-21.837 21.5-52.5Q429 366 407.164 344.5q-21.837-21.5-52.5-21.5Q324 323 302.5 344.836q-21.5 21.837-21.5 52.5Q281 428 302.836 449.5q21.837 21.5 52.5 21.5ZM356 827Zm-1-430Z"/></svg>