<?xml version="1.0" encoding="UTF-8" standalone="no"?>
<!-- Created with Inkscape (http://www.inkscape.org/) -->

<svg
   version="1.1"
   id="svg2"
   width="722.66669"
   height="1586.6667"
   viewBox="0 0 722.66669 1586.6667"
   sodipodi:docname="tellbow.eps"
   xmlns:inkscape="http://www.inkscape.org/namespaces/inkscape"
   xmlns:sodipodi="http://sodipodi.sourceforge.net/DTD/sodipodi-0.dtd"
   xmlns="http://www.w3.org/2000/svg"
   xmlns:svg="http://www.w3.org/2000/svg">
  <defs
     id="defs6" />
  <sodipodi:namedview
     id="namedview4"
     pagecolor="#ffffff"
     bordercolor="#000000"
     borderopacity="0.25"
     inkscape:showpageshadow="2"
     inkscape:pageopacity="0.0"
     inkscape:pagecheckerboard="0"
     inkscape:deskcolor="#d1d1d1" />
  <g
     id="g8"
     inkscape:groupmode="layer"
     inkscape:label="ink_ext_XXXXXX"
     transform="matrix(1.3333333,0,0,-1.3333333,0,1586.6667)">
    <g
       id="g10"
       transform="scale(0.1)">
      <path
         d="m 2930.15,5513.71 c -4.86,587.54 -251.11,933.12 -251.79,934.12 214.55,-120.72 355.61,-699.6 251.79,-934.12"
         style="fill:#b3b3b3;fill-opacity:1;fill-rule:nonzero;stroke:none"
         id="path12" />
      <path
         d="m 136.703,8428.51 81.508,-1.74 -15.566,186.75 -97.27,-2.84 c 6.59,-57.7 17.363,-119.19 31.328,-182.17"
         style="fill:#ad6f11;fill-opacity:1;fill-rule:nonzero;stroke:none"
         id="path14" />
      <path
         d="m 488.531,8868.84 c -50.258,5.12 -111.461,9.75 -137.679,11.67 l -229.786,-207.46 100.032,2.94 c 28.015,19.65 129.578,91.3 267.433,192.85"
         style="fill:#ad6f11;fill-opacity:1;fill-rule:nonzero;stroke:none"
         id="path16" />
      <path
         d="m 702.344,8869.03 c -15.09,-17.38 -38.563,-23.54 -64.215,-23.84 -22.664,-0.28 -45.906,5.03 -64.039,9.86 C 424.945,8744.38 303.91,8658.7 263.48,8630.25 l 14.653,-175.03 c 86.437,68.21 283.609,222.94 475.449,367.01 -14.121,11.14 -32.082,27.89 -51.238,46.8"
         style="fill:#9c4706;fill-opacity:1;fill-rule:nonzero;stroke:none"
         id="path18" />
      <path
         d="m 379.324,8940.5 c 58.567,-4.58 167.93,-13.87 196.504,-21.75 l 3.875,-1.04 c 15.723,-4.35 39.18,-10.86 57.684,-10.65 7.98,0.09 15.109,2.38 18.418,9.26 l -26.289,27.42 -1.481,1.69 c -25.316,26.45 -45.39,47.44 -46.64,48.14 -11.254,6.43 -159.602,49.41 -160.024,49.52 54.832,33.03 118.152,40.19 190.59,4.36 8.559,-4.88 31.73,-29 60.695,-59.29 l 1.762,-1.7 c 45.395,-47.48 106.02,-110.83 122.801,-119.95 l 0.98,-0.44 c 0.321,-0.14 3.578,1.23 8.153,3.43 6.976,3.33 14.16,8.84 20.093,15.43 5.106,5.69 8.875,11.73 10,17.08 0.422,1.99 0.301,3.78 -0.582,5 -8.183,11.16 -27.164,39.12 -49.898,72.6 -50.43,74.27 -120.613,177.61 -130.211,183.72 -14.949,9.51 -144.352,26.52 -144.703,26.55 24.035,43.04 108.605,69.71 177.945,25.6 20.32,-12.94 94.731,-122.48 148.172,-201.18 l 24.352,-35.78 c 4.632,12.99 6.039,27.61 5.566,42.2 -1.023,31.33 -10.742,63.2 -17.695,82.88 -11.164,31.52 -78.164,128.67 -101.563,162.14 l -129.265,15.05 c 33.015,40.18 151.167,61.95 172.121,31.84 0.281,-0.37 100.296,-140.62 117.199,-188.39 l 3.363,-9.86 c 4.629,6.64 7.817,15.41 9.945,25.11 5.516,24.58 4.247,54.37 1.571,77.93 -2.098,18.38 -5.09,32.49 -6.446,37.51 -2.304,8.75 -29.722,44.18 -60.078,76.29 -20.726,21.92 -41.273,40.52 -52.386,43.69 -14.332,4.08 -78.954,-7.05 -149.633,-22.73 -78.301,-17.38 -160.989,-40.47 -192.875,-55.61 l -2.043,-1.13 C 435.953,9283.79 376.488,9220.22 314.141,9147.22 233.266,9052.57 149.855,8944.09 131.227,8908.91 108.672,8866.28 98.4922,8806.27 98,8735.28 l 199.184,180.25 c 12.339,11.18 33.312,28.79 82.14,24.97"
         style="fill:#ffcba8;fill-opacity:1;fill-rule:nonzero;stroke:none"
         id="path20" />
      <path
         d="m 965.426,8859.52 c -115.719,-53.23 -199.692,-180.89 -248.961,-255.81 -6.848,-10.42 -13.102,-19.92 -18.735,-28.21 7.625,-8.36 15.372,-16.69 23.172,-25.07 228.782,-196.95 221.071,-449.36 43.493,-639.12 135.441,355.68 19.722,480.12 -88.887,596.89 -32.328,34.76 -64.094,68.91 -90.137,108.23 -173.594,-133.79 -313.312,-244.9 -314.195,-245.59 -5.844,-4.61 -12.852,-6.79 -19.774,-6.65 l -99.996,2.11 c 64.059,-255.55 174.692,-519.87 270.457,-649.72 61.473,-83.36 170.762,-48.1 219.61,-32.35 14.547,4.69 25.179,8.14 34.14,8.32 191.91,3.96 405.637,52.94 588.077,148.06 l 28.82,15.57 c -76.05,114.98 -352.244,565.11 -327.084,1003.34"
         style="fill:#ffcba8;fill-opacity:1;fill-rule:nonzero;stroke:none"
         id="path22" />
      <path
         d="m 607.93,8585.2 c -7.871,10.11 -15.426,20.46 -22.559,31.23 -173.594,-133.79 -313.312,-244.9 -314.195,-245.59 -5.844,-4.61 -12.852,-6.79 -19.774,-6.65 l -99.996,2.11 c 64.059,-255.55 174.692,-519.87 270.457,-649.72 61.473,-83.36 170.762,-48.1 219.61,-32.35 14.547,4.69 25.179,8.14 34.14,8.32 191.91,3.96 405.637,52.94 588.077,148.06 l 28.82,15.57 c -21.37,32.33 -58.6,91.14 -100.49,168.77 -87.1,-93.62 -179.67,-165.59 -269.735,-186.77 -332.121,-78.09 -539.652,159.18 -539.652,361.07 0,143.7 142.91,304.92 225.297,385.95"
         style="fill:#db8f5c;fill-opacity:1;fill-rule:nonzero;stroke:none"
         id="path24" />
      <path
         d="m 965.426,8859.52 c -115.719,-53.23 -199.692,-180.89 -248.961,-255.81 -6.848,-10.42 -13.102,-19.92 -18.735,-28.21 7.625,-8.36 15.372,-16.69 23.172,-25.07 53.176,-45.79 93.551,-94.56 122.024,-144.85 h 0.015 c 0,0 -23.539,201.33 121.094,378.31 -0.457,25.2 -0.051,50.43 1.391,75.63"
         style="fill:#db8f5c;fill-opacity:1;fill-rule:nonzero;stroke:none"
         id="path26" />
      <path
         d="m 3710.42,7272.03 c -0.32,-2.19 -119.76,-762.02 -46.47,-1428.57 -134.47,263.99 -121.25,1095.64 46.47,1428.57"
         style="fill:#b3b3b3;fill-opacity:1;fill-rule:nonzero;stroke:none"
         id="path28" />
      <path
         d="m 1853.24,9744.89 c -35.74,-18.35 -71.81,-37.17 -104.55,-54.83 -46.82,-25.27 -86.11,-47.77 -106.34,-62.23 l -66.58,-48.54 c -113.23,-82.8 -347.09,-253.81 -589.934,-426.16 -0.828,-9.05 -2.133,-18.03 -4.051,-26.72 -7.43,-34.18 -23.773,-63.78 -54.972,-78.22 1.105,-8.33 1.863,-16.89 2.148,-25.53 0.934,-28.54 -3.258,-57.67 -16.941,-83.25 88.94,64.55 168.55,119.75 224.66,153.79 211.41,128.2 456.82,192.29 515.25,206.38 22.17,34.65 95.66,140.71 221.65,238.43 -19.42,58.81 -25.13,127.87 -20.34,206.88"
         style="fill:#9c4706;fill-opacity:1;fill-rule:nonzero;stroke:none"
         id="path30" />
      <path
         d="m 1890.32,9986.86 -358.19,-142.65 c -87.41,-34.93 -154.02,-61.69 -169.29,-68.24 -6.9,-2.96 -55.96,-44.22 -131.21,-109.39 -87.27,-75.57 -204.56,-179.35 -330.985,-292.11 l 0.742,-0.78 c 36.093,-38.19 70.359,-86.4 74.746,-102.49 1.797,-6.16 5.316,-22.58 7.851,-43.37 229.556,163.33 447.156,322.46 555.166,401.42 l 67.28,49.04 c 22.7,16.2 64.16,40.06 112.88,66.35 43.37,23.4 93.33,49.22 140.9,73.34 6.66,52.54 16.93,108.85 30.11,168.88"
         style="fill:#ad6f11;fill-opacity:1;fill-rule:nonzero;stroke:none"
         id="path32" />
      <path
         d="m 3171.06,11533.9 c -92.37,168.7 -262.22,323.8 -596.29,300.9 -28.93,-2 -56.79,-5.6 -83.45,-10.6 l -1.07,-0.3 c -233.17,-44.5 -384.09,-202.9 -474.1,-389.5 -91.33,-189.2 -120.46,-407.1 -109.5,-566.6 2.06,-30.2 5.62,-58.4 10.46,-83.7 31.9,-166.9 44.67,-357.4 49.56,-501.7 17.96,63.5 37.31,129.9 57.49,199.1 40.11,137.6 83.61,286.8 126.68,449.3 210.39,793.7 621.91,761.1 629.48,760.5 24.5,0 229.23,-4.9 390.74,-157.4"
         style="fill:#cabcaf;fill-opacity:1;fill-rule:nonzero;stroke:none"
         id="path34" />
      <path
         d="m 1951.36,9514.24 11.26,11.81 -12.91,-8.76 z"
         style="fill:#b3b3b3;fill-opacity:1;fill-rule:nonzero;stroke:none"
         id="path36" />
      <path
         d="m 1906.37,10226 c -171.76,-4.2 -347.48,-23.9 -520.38,-43.1 -415.033,-46.4 -814.404,-90.9 -1133.588,79.2 l -9.207,-31.9 C 500.027,10030.8 956.992,10055 1295.56,10073 l 7.71,0.4 c 40.59,2.1 83.77,4.7 127.08,7.3 155.3,9.4 311.96,18.9 477.25,13.8 0.17,29.8 0.05,75.5 -1.23,131.5"
         style="fill:#9c4706;fill-opacity:1;fill-rule:nonzero;stroke:none"
         id="path38" />
      <path
         d="m 270.031,10323.1 c 304.25,-168.4 698.848,-124.4 1109.169,-78.6 173.51,19.3 349.85,39.1 525.35,43.4 -1.51,42.2 -3.7,88.3 -6.87,136.5 -225.5,-14.8 -450.07,-47.7 -658.84,-78.2 -412.66,-60.5 -764.871,-112.1 -961.535,2 l -7.274,-25.1"
         style="fill:#ad6f11;fill-opacity:1;fill-rule:nonzero;stroke:none"
         id="path40" />
      <path
         d="m 5180.67,8441.31 c -316.47,-285.72 -818.23,-364.11 -972.42,-382.02 6.62,-11.94 13.4,-23.62 20.32,-35.03 82.79,-136.39 187.5,-234.4 305.02,-286.58 33.91,71.87 159.73,235.82 282.07,202.91 -322.12,-159.63 -304.11,-548.18 -291.82,-813.54 5.75,-123.98 10.32,-223.1 -21.26,-272.93 -4.01,-6.23 -10.22,-11.09 -17.94,-13.22 -0.49,-0.13 -182.14,-50.15 -222.41,-57.03 -22.04,-3.75 -113.64,-43.58 -187.52,-93.8 -42.45,-28.86 -77.5,-59.87 -84.84,-85.89 -11.9,-42.12 0.62,-82.23 13.63,-109.02 72.71,78.69 158.12,152.35 237.62,141.17 -19.88,-21.87 -48.33,-47.53 -79.92,-75.95 -97.65,-87.97 -228.71,-206.04 -180.75,-277.66 16.7,-24.92 31.98,-26.32 48.64,-27.84 18.61,-1.67 38.26,-3.5 62.26,-17.27 23.15,-13.29 34.23,-36.78 46.04,-61.86 8.66,-18.38 18,-38.17 30.73,-47.01 12.29,-8.54 36.4,-9.56 59.25,-10.48 27.72,-1.12 54.25,-2.22 75.91,-15.31 27.63,-16.74 40.81,-42.69 53.55,-67.71 8.33,-16.37 16.39,-32.24 25.31,-36.76 18.88,-9.62 39.61,-10.96 59.45,-7.89 l 0.9,0.16 c 31.22,5.07 60.48,20.62 79.23,33.47 70.91,48.63 134.46,171.04 200.39,298.1 26.71,51.49 53.84,103.79 82.23,152.68 0.96,1.66 2.09,3.24 3.39,4.74 134.26,155.42 238.5,326.08 319.43,484.73 81.16,159.11 138.93,306.29 180.16,414.25 63.57,166.43 42.6,241.95 13.97,345.05 -18.9,68 -40.9,147.16 -47.05,267.36 -7.71,150.35 -37.13,308.63 -93.57,450.18"
         style="fill:#ffcba8;fill-opacity:1;fill-rule:nonzero;stroke:none"
         id="path42" />
      <path
         d="m 5180.67,8441.31 c -30.96,-27.94 -63.67,-53.86 -97.67,-77.99 41.8,-115.13 77.42,-240.45 80.5,-339.23 7.77,-248.47 89.31,-295.04 85.42,-434.82 -3.89,-139.77 -155.29,-553.26 -287.29,-770.66 -132.01,-217.41 -207.73,-269.83 -207.73,-269.83 0,0 -149.44,-388.21 -283.38,-413.46 -133.95,-25.24 -205.77,95.13 -205.77,95.13 0,0 -151.41,46.59 -174.7,81.52 -23.3,34.93 32.77,213.6 32.77,213.6 -89.68,-82.4 -184.24,-180.34 -142.37,-242.85 16.7,-24.92 31.98,-26.32 48.64,-27.84 18.61,-1.67 38.26,-3.5 62.26,-17.27 23.15,-13.29 34.23,-36.78 46.04,-61.86 8.66,-18.38 18,-38.17 30.73,-47.01 12.29,-8.54 36.4,-9.56 59.25,-10.48 27.72,-1.12 54.25,-2.22 75.91,-15.31 27.63,-16.74 40.81,-42.69 53.55,-67.71 8.33,-16.37 16.39,-32.24 25.31,-36.76 18.88,-9.62 39.61,-10.96 59.45,-7.89 l 0.9,0.16 c 31.22,5.07 60.48,20.62 79.23,33.47 70.91,48.63 134.46,171.04 200.39,298.1 26.71,51.49 53.84,103.79 82.23,152.68 0.96,1.66 2.09,3.24 3.39,4.74 134.26,155.42 238.5,326.08 319.43,484.73 81.16,159.11 138.93,306.29 180.16,414.25 63.57,166.43 42.6,241.95 13.97,345.05 -18.9,68 -40.9,147.16 -47.05,267.36 -7.71,150.35 -37.13,308.63 -93.57,450.18 z M 4093.16,6702.18 c -6.23,-3.96 -12.39,-7.99 -18.45,-12.11 -42.45,-28.86 -77.5,-59.87 -84.84,-85.89 -11.9,-42.12 0.62,-82.23 13.63,-109.02 24.44,26.45 50.31,52.33 76.91,74.61 -17.92,30.23 -26.71,75.18 12.75,132.41"
         style="fill:#db8f5c;fill-opacity:1;fill-rule:nonzero;stroke:none"
         id="path44" />
      <path
         d="m 4300.9,8072.19 c -37.66,-6.04 -69.2,-10.17 -92.65,-12.9 6.62,-11.94 13.4,-23.62 20.32,-35.03 82.79,-136.39 187.5,-234.4 305.02,-286.58 20.53,43.49 74.7,120.7 141.39,167.59 -41.07,-0.95 -112.97,5.88 -225.29,42.77 -49.95,16.41 -100.77,63.32 -148.79,124.15"
         style="fill:#db8f5c;fill-opacity:1;fill-rule:nonzero;stroke:none"
         id="path46" />
      <path
         d="m 4240.96,7897.45 c -22.98,29.39 -44.77,61 -65.29,94.77 -57.26,94.32 -175.41,432.61 -126.56,590.57 22.06,-178.39 66.78,-334.67 128.75,-464.43 111.93,11.13 656.11,79.73 976.68,383.1 -42.88,90.74 -98.13,172.37 -167.29,237.36 -1.64,-45.75 -29.78,-89.58 -72.72,-90.3 30.72,173.67 9.42,400.83 -161.72,599.98 -121.86,141.8 -319.83,269.98 -628.96,356.05 -4.82,-43.56 -33.51,-103.92 -79.64,-174.28 -51.59,-78.68 -125.97,-172.61 -213.16,-270.76 -289.69,-326.05 -724.96,-701.13 -944.94,-725.61 -259.65,-28.9 -1112.33,707.77 -1223.13,804.56 -60.53,-14.81 -293.85,-76.61 -494.25,-198.16 -35.06,-21.27 -79.64,-51.08 -130.07,-86.4 -79.82,-450.64 231.24,-952.09 307.06,-1065.92 114.1,72.86 210.42,166.2 272.87,280.3 1.43,255.76 -11.95,582.95 25.48,701.15 3.42,-97.42 12,-197.98 20.52,-298.38 18.98,-223.13 37.91,-445.73 1.6,-670.64 -11.99,-74.22 -25.34,-145.14 -38.08,-212.97 -34.31,-182.37 -64.43,-342.58 -45.03,-431.1 10.49,-47.63 40.04,-70.64 100.88,-57.31 39.49,8.69 80.61,27.85 118.87,51.15 49.9,30.37 94.99,67.83 126.12,98.96 48.25,48.24 186.72,137.27 352.76,208.41 -120.75,83.77 -300.07,293.63 -230.31,471.84 0.07,-0.76 25.58,-270.6 304.45,-442.07 8.76,3.29 17.55,6.5 26.39,9.63 83.57,29.62 171.06,52.72 255.9,63 -90.44,58.41 -147.87,150.04 -113.87,251.45 46.71,-189.64 212.81,-238.47 286.02,-250.86 217.42,-29.27 431.7,16.05 619.63,55.83 l 1.18,0.23 c 67.61,14.29 131.92,27.87 192.88,37.22 v 0.02 l 0.17,0.02 h 0.04 l 13.66,2.04 c 45.73,8.82 191.26,53.81 233.17,272.34 38.38,-105.15 -20.46,-212.54 -103.04,-276.95 123.06,-29.96 223.46,-127.12 302.52,-203.67 40.23,-38.96 74.45,-72.09 98.92,-83.84 10.36,-4.96 19.69,-6.92 27.89,-6.27 8.6,0.67 16.71,4.56 24.09,10.99 9.23,8.03 17.4,19.63 24.21,33.82 19.53,40.7 28.19,100.44 23.18,164.06 -3.33,42.25 -11.06,101.44 -19.81,168.97 l -8.02,62.1"
         style="fill:#cabcaf;fill-opacity:1;fill-rule:nonzero;stroke:none"
         id="path48" />
      <path
         d="m 5060.41,8423.23 c 32.93,24.17 64.5,50.18 94.13,78.23 -42.88,90.74 -98.13,172.37 -167.29,237.36 -1.06,-29.32 -12.98,-57.84 -32.72,-74.75 20.62,-42.14 63.95,-133.59 105.88,-240.84"
         style="fill:#856f5a;fill-opacity:1;fill-rule:nonzero;stroke:none"
         id="path50" />
      <path
         d="m 4240.96,7897.45 c -22.98,29.39 -44.77,61 -65.29,94.77 -53.79,88.6 -161.3,392.48 -133.66,559.93 l 0.02,0.09 0.02,-0.01 -0.04,-0.08 c -0.97,-3.52 -31.66,-117.49 -6.8,-278.96 25.25,-164.04 126.09,-331.98 147.45,-417.39 21.36,-85.39 -9.7,-188.29 -155.3,-126.17 -143.33,61.15 -144.37,221.95 -144.37,226.95 -1.63,-80.17 -51.25,-155.55 -115.01,-205.29 123.06,-29.96 223.46,-127.12 302.52,-203.67 40.23,-38.96 74.45,-72.09 98.92,-83.84 10.36,-4.96 19.69,-6.92 27.89,-6.27 8.6,0.67 16.71,4.56 24.09,10.99 9.23,8.03 17.4,19.63 24.21,33.82 19.53,40.7 28.19,100.44 23.18,164.06 -3.33,42.25 -11.06,101.44 -19.81,168.97 z m -181.29,611.83 c 24.33,-148.05 64.89,-279.3 118.19,-390.92 17.52,1.74 45.66,4.89 81.86,10.14 -91.04,133.49 -167.05,302.76 -200.05,380.78 z M 1656.98,7845.3 c -9.38,-54.45 -19.31,-107.03 -28.87,-157.86 -34.31,-182.37 -64.43,-342.58 -45.03,-431.1 10.49,-47.63 40.04,-70.64 100.88,-57.31 39.49,8.69 80.61,27.85 118.87,51.15 49.9,30.37 94.99,67.83 126.12,98.96 48.25,48.24 186.72,137.27 352.76,208.41 -81.36,56.45 -189.3,170.13 -229.73,292.78 1.91,-6.74 61.98,-222.76 -75.6,-285.81 -139.78,-64.06 -132,-190.24 -262.05,-168.88 -123.97,20.36 -63.3,412.92 -57.35,449.66 z m 411.54,106.91 c 28.3,-92.92 101.63,-250.7 287.33,-364.89 8.76,3.29 17.55,6.5 26.39,9.63 83.57,29.62 171.06,52.72 255.9,63 -75.49,48.76 -127.98,120.67 -123.49,202.09 l -0.01,-0.02 c 0,0 -39.38,-120.86 -190.79,-120.86 -150.49,0 -254.1,208.53 -255.33,211.05 z m 468.43,-81.77 c 58.82,-155.92 205.71,-198.46 273.34,-209.9 217.42,-29.27 431.7,16.05 619.63,55.83 l 1.18,0.23 c 67.61,14.29 131.92,27.87 192.88,37.22 v 0.02 l 0.17,0.02 h 0.04 l 13.66,2.04 c 38.41,7.41 147.22,40.34 205.91,180.22 -1.37,-1.25 -144.03,-131.85 -246.4,-151.17 -102.87,-19.4 -346.5,-67.98 -604.66,-89.34 -258.18,-21.36 -455.75,174.83 -455.75,174.83 z m 1346.04,86.26 h -0.01 l 0.01,-0.12 z"
         style="fill:#856f5a;fill-opacity:1;fill-rule:nonzero;stroke:none"
         id="path52" />
      <path
         d="m 1235.69,8074.13 c 46.29,-87.49 88.04,-153.14 110.03,-186.15 114.1,72.86 210.42,166.2 272.87,280.3 0.94,167.79 -4.5,366.34 2.23,516.43 -0.18,-0.35 -171.05,-358.54 -385.13,-610.58"
         style="fill:#856f5a;fill-opacity:1;fill-rule:nonzero;stroke:none"
         id="path54" />
      <path
         d="m 4925.65,8751.11 c 6.36,155.1 -33.73,335.5 -172.84,497.39 -121.86,141.8 -319.83,269.98 -628.96,356.05 -4.82,-43.56 -33.51,-103.92 -79.64,-174.28 -31.09,-47.42 -70.48,-100.42 -115.98,-156.54 10.61,13 183.39,220.58 372.22,201.26 194.9,-19.95 598.1,-378.33 625.2,-723.88"
         style="fill:#856f5a;fill-opacity:1;fill-rule:nonzero;stroke:none"
         id="path56" />
      <path
         d="m 3587.41,8907.52 c -253.75,-242.32 -537.33,-455.38 -701.3,-473.62 -259.65,-28.9 -1112.33,707.77 -1223.13,804.56 -60.53,-14.81 -293.85,-76.61 -494.25,-198.16 -35.06,-21.27 -79.64,-51.08 -130.07,-86.4 -6.15,-34.74 -9.97,-69.78 -11.77,-104.93 29.6,26.08 63.84,50.89 103.49,73.55 326.12,186.37 508.59,260.12 667.76,132.01 159.18,-128.12 830.82,-753.17 1098.72,-694.94 267.88,58.23 690.55,547.93 690.55,547.93"
         style="fill:#856f5a;fill-opacity:1;fill-rule:nonzero;stroke:none"
         id="path58" />
      <path
         d="m 4096,9676.29 c 347.74,-89.45 568.77,-230.26 703.89,-387.5 24.4,-28.37 45.98,-57.27 65,-86.48 v 0.13 c 38.36,-2.68 76.33,-2.63 113.5,0.61 29.93,2.59 59.25,7.29 87.77,14.32 l 16.82,121.7 c -225.87,-24.26 -526.75,166.03 -879.21,388.97 -84.83,53.67 -172.8,109.31 -264.34,164.83 7.14,-42.32 4.48,-85.33 -12.31,-129.53 29.9,-12.48 59.18,-25.37 85.29,-38.03 34.43,-16.68 64.02,-33.42 83.59,-49.02"
         style="fill:#ad6f11;fill-opacity:1;fill-rule:nonzero;stroke:none"
         id="path60" />
      <path
         d="m 1515.06,7325.16 c -88.09,-5.87 -192.74,-18.12 -283.31,-43.02 -70.1,-19.28 -131.41,-46.01 -168.36,-82.95 -79.21,-79.23 -35.31,-192.35 18.13,-330.03 38.79,-99.98 82.19,-211.83 91.8,-336.76 7.82,-101.79 13.6,-265.1 19.83,-442.36 11.99,-340.4 25.87,-733.27 60.2,-843.48 3.4,-10.92 10.39,-21.27 20.27,-30.95 4.28,-4.2 9.12,-8.28 14.44,-12.24 29.88,109.54 56.73,203.26 66.31,236.49 -67.02,127.29 77.16,446.54 207.72,735.63 69.29,153.44 134.67,298.12 160.84,394.95 59.9,221.65 50.87,487.16 44.21,591.19 -23.16,-10.11 -46.64,-18.15 -69.84,-23.26 -104.75,-23 -156.02,18.84 -174.88,104.63 -5.24,23.87 -7.48,51.45 -7.36,82.16"
         style="fill:#ad6f11;fill-opacity:1;fill-rule:nonzero;stroke:none"
         id="path62" />
      <path
         d="m 1515.06,7325.16 c -28.45,-1.91 -58.65,-4.46 -89.52,-7.89 41.59,-169.34 122.96,-570.95 63.59,-927.17 -54.27,-325.61 -163.55,-581.02 -280.09,-700.01 9.92,-202.53 23.29,-376.04 44.31,-443.53 3.4,-10.92 10.39,-21.27 20.27,-30.95 4.28,-4.2 9.12,-8.28 14.44,-12.24 29.88,109.54 56.73,203.26 66.31,236.49 -67.02,127.29 77.16,446.54 207.72,735.63 69.29,153.44 134.67,298.12 160.84,394.95 59.9,221.65 50.87,487.16 44.21,591.19 -23.16,-10.11 -46.64,-18.15 -69.84,-23.26 -104.75,-23 -156.02,18.84 -174.88,104.63 -5.24,23.87 -7.48,51.45 -7.36,82.16"
         style="fill:#9c4706;fill-opacity:1;fill-rule:nonzero;stroke:none"
         id="path64" />
      <path
         d="m 4195.61,7241.39 c -686.23,272.82 -1341.35,171.95 -1789.28,27.68 4.72,-323.53 -145.34,-775.83 -438.95,-806.29 1.09,0.46 381.03,150.92 377.32,785.78 -273.74,-94.38 -459.43,-200.17 -510.91,-231.04 0.52,-130.88 -8.81,-307.22 -50.93,-463.11 -27.5,-101.79 -93.87,-248.66 -164.21,-404.42 -108.26,-239.68 -226.4,-501.26 -222.14,-629.82 32.31,48.18 76.45,96.58 138.5,128.33 88.99,45.55 212.51,55.76 385.69,-20.52 110.94,-48.86 228.06,-119.92 348.95,-193.28 232.59,-141.13 479.75,-291.13 719.05,-301.1 157.76,-6.56 342.83,18.23 519.08,41.86 239.01,32.02 462.41,61.94 593.57,10.44 22.58,-8.86 47.6,-19.41 71.12,-29.32 57.59,-24.24 105.33,-44.33 140.51,-46.62 53.27,-3.47 83.8,47.08 95.56,227.58 8.21,125.91 12.53,237.83 13.64,338.34 1.01,91.56 -0.61,174.76 -4.34,251.33 -21.31,0.6 -42.96,5.31 -63.83,15.94 -26.94,13.7 -39.51,38.39 -52.51,63.95 -8.87,17.47 -18.1,35.57 -30.27,42.95 -7.87,4.75 -26.67,5.55 -46.29,6.34 -31.83,1.29 -65.34,2.69 -92.25,21.39 -26.27,18.24 -39.25,45.83 -51.36,71.52 -7.57,16.1 -14.7,31.17 -20.79,34.68 -12.21,7 -24.95,8.18 -37.02,9.28 -32.02,2.9 -61.4,5.58 -94.52,55.02 -41.52,62 -17.13,130.37 32.09,196.35 -20.38,34.02 -51.75,102.51 -30.91,176.27 11.9,42.15 56.7,84.24 109.84,120.37 80.8,54.92 185.41,99.24 211.79,103.73 l 2.59,0.48 c -13.81,78.69 -32.68,195.38 -48.42,313.57 -3.66,27.53 -7.15,55.1 -10.37,82.34"
         style="fill:#cabcaf;fill-opacity:1;fill-rule:nonzero;stroke:none"
         id="path66" />
      <path
         d="m 2704.8,6430.4 c 0,0 313.13,-163.56 542.19,-0.51 229.06,163.05 431.19,767.18 431.19,767.18 0,0 -46.84,-396.43 -66.25,-575.01 -19.4,-178.58 -3.87,-477.52 -3.87,-477.52 l 38.24,-261.1 c 0,0 -170.25,101.9 -344.95,18.44 -174.71,-83.46 -348.64,-315.43 -348.64,-315.43 0,0 3.09,476.56 -247.91,843.95 z m 1490.81,810.99 c -86.25,34.29 -172,62.67 -256.92,85.81 93.25,-191.19 142.2,-374.81 100.35,-448.87 -50.47,-89.29 -213.54,-131.99 -229.07,-329.99 -15.53,-198 -3.87,-368.84 147.54,-481.42 151.41,-112.59 341.65,-217.39 318.35,-434.81 -23.29,-217.43 -69.79,-314.47 -357.11,-298.94 -287.3,15.53 -557.46,-79.18 -931.76,-85.4 -368.45,-6.11 -795.97,234.86 -809.25,242.39 30.36,-18.11 61.01,-36.71 91.91,-55.46 232.59,-141.13 479.75,-291.13 719.05,-301.1 157.76,-6.56 342.83,18.23 519.08,41.86 239.01,32.02 462.41,61.94 593.57,10.44 22.58,-8.86 47.6,-19.41 71.12,-29.32 57.59,-24.24 105.33,-44.33 140.51,-46.62 53.27,-3.47 83.8,47.08 95.56,227.58 8.21,125.91 12.53,237.83 13.64,338.34 1.01,91.56 -0.61,174.76 -4.34,251.33 -21.31,0.6 -42.96,5.31 -63.83,15.94 -26.94,13.7 -39.51,38.39 -52.51,63.95 -8.87,17.47 -18.1,35.57 -30.27,42.95 -7.87,4.75 -26.67,5.55 -46.29,6.34 -31.83,1.29 -65.34,2.69 -92.25,21.39 -26.27,18.24 -39.25,45.83 -51.36,71.52 -7.57,16.1 -14.7,31.17 -20.79,34.68 -12.21,7 -24.95,8.18 -37.02,9.28 -32.02,2.9 -61.4,5.58 -94.52,55.02 -41.52,62 -17.13,130.37 32.09,196.35 -20.38,34.02 -51.75,102.51 -30.91,176.27 11.9,42.15 56.7,84.24 109.84,120.37 80.8,54.92 185.41,99.24 211.79,103.73 l 2.59,0.48 c -13.81,78.69 -32.68,195.38 -48.42,313.57 -3.66,27.53 -7.15,55.1 -10.37,82.34 z M 2042.62,6507.21 c 110.82,80.68 304.74,286.9 302.08,741.35 -273.74,-94.38 -459.43,-200.17 -510.91,-231.04 0.38,-95.2 -4.46,-214.47 -23.34,-332.4 0,0 91.8,310.64 300.98,303.74 209.18,-6.9 -68.83,-481.65 -68.83,-481.65 z m -423.97,-357.22 c -108.26,-239.68 -226.4,-501.26 -222.14,-629.82 32.31,48.18 76.45,96.58 138.5,128.33 41.17,21.07 89.73,34.58 147.17,35.46 0,0 -193.29,104.61 -63.53,466.03"
         style="fill:#856f5a;fill-opacity:1;fill-rule:nonzero;stroke:none"
         id="path68" />
      <path
         d="m 1832.54,7088.41 c 225.76,128.19 1247.44,646.22 2355.37,222.59 -3.03,29.65 -5.6,58.28 -7.55,85.29 -12.15,1.66 -24.73,5.48 -37.63,11.67 -33.88,16.26 -71.37,52.56 -115.44,95.25 -93.55,90.58 -219.93,212.9 -368.04,193.16 l -5.07,-0.69 c -8.46,-1.8 -16.84,-3.06 -25.09,-3.72 v 0.02 c -57.37,-9 -119.69,-22.17 -185.14,-36.01 l -1.18,-0.28 c -181.56,-38.42 -387.04,-81.86 -601.01,-61.12 -18.16,0.82 -36.45,2.98 -54.6,6.39 -118.07,12.53 -255.53,-16.85 -384.28,-62.5 -199.91,-70.87 -376.48,-179.71 -430.01,-233.24 -33.79,-33.79 -82.99,-74.59 -137.78,-107.93 l -8.07,-4.83 c 1.64,-20.97 4.05,-57.33 5.52,-104.05"
         style="fill:#735137;fill-opacity:1;fill-rule:nonzero;stroke:none"
         id="path70" />
      <path
         d="m 1832.54,7088.41 c 81.87,46.49 268.46,144.22 525.81,229.73 4.8,52.02 30.49,182.79 166.41,257.45 -40.9,-10.28 -81.82,-22.92 -121.88,-37.13 -199.91,-70.87 -376.48,-179.71 -430.01,-233.24 -33.79,-33.79 -82.99,-74.59 -137.78,-107.93 l -8.07,-4.83 c 1.64,-20.97 4.05,-57.33 5.52,-104.05"
         style="fill:#57371f;fill-opacity:1;fill-rule:nonzero;stroke:none"
         id="path72" />
      <path
         d="m 3900.65,7401.04 c 94.8,-23.5 190.68,-53.12 287.26,-90.04 -3.03,29.65 -5.6,58.28 -7.55,85.29 -12.15,1.66 -24.73,5.48 -37.63,11.67 -33.88,16.26 -71.37,52.56 -115.44,95.25 -93.55,90.58 -219.93,212.9 -368.04,193.16 l -5.07,-0.69 c -8.46,-1.8 -16.84,-3.06 -25.09,-3.72 v 0.02 c -57.37,-9 -119.69,-22.17 -185.14,-36.01 0,0 300.04,18.26 432.03,-210.8 8.44,-14.63 16.66,-29.37 24.67,-44.13"
         style="fill:#57371f;fill-opacity:1;fill-rule:nonzero;stroke:none"
         id="path74" />
      <path
         d="m 2268.13,10152.5 c -5.66,0.9 -11.13,3.4 -15.71,7.5 -135.83,121.8 -165.68,227.7 -161.73,328.5 l -7.08,-24.2 c -117.22,-402.2 -205.36,-704.71 -156.71,-887.78 48.38,32.49 103.06,62.72 164.05,87.41 65.62,72.43 129.21,146.55 145,178.16 21.05,41.94 29.09,197.51 32.18,310.41"
         style="fill:#856f5a;fill-opacity:1;fill-rule:nonzero;stroke:none"
         id="path76" />
      <path
         d="m 3186.43,10008.9 c -0.35,1.9 -0.5,3.9 -0.49,5.9 -0.93,11.9 -1.56,23.4 -1.99,34.1 -66.19,-42.3 -148.12,-87.11 -210.66,-97.12 -91.16,-14.58 -252,79.12 -339.73,136.32 -0.67,-25 -6.53,-50 -18.17,-74.7 -1.76,-4.2 -4.46,-8 -8.09,-11.2 -12.85,-11.24 -32.43,-9.94 -43.68,2.9 -26.96,30.9 -69.11,54.3 -111.73,77.8 -43.34,24 -87.19,48.3 -121.51,81.6 -3.27,-119 -12.57,-297.15 -38.96,-350.04 -32.86,-65.98 -237.43,-282.47 -302.63,-350.65 4.72,-4.77 9.68,-9.35 14.89,-13.75 215.4,-181.63 865.56,-298.77 956.49,-314.45 66.38,37.6 471.46,269.02 756.48,477.46 9.88,7.22 19.15,14.41 27.98,21.56 -126.71,52.7 -472.07,200.13 -530.78,265.05 -3.03,2.84 -5.55,6.34 -7.29,10.39 -11.11,25.86 -17.03,63.32 -20.13,98.83"
         style="fill:#ffcba8;fill-opacity:1;fill-rule:nonzero;stroke:none"
         id="path78" />
      <path
         d="m 3186.43,10008.9 c -0.35,1.9 -0.5,3.9 -0.49,5.9 -0.93,11.9 -1.56,23.4 -1.99,34.1 -66.19,-42.3 -148.12,-87.11 -210.66,-97.12 -91.16,-14.58 -252,79.12 -339.73,136.32 -0.67,-25 -6.53,-50 -18.17,-74.7 -1.76,-4.2 -4.46,-8 -8.09,-11.2 -12.85,-11.24 -32.43,-9.94 -43.68,2.9 -26.96,30.9 -69.11,54.3 -111.73,77.8 -43.34,24 -87.19,48.3 -121.51,81.6 -3.27,-119 -12.57,-297.15 -38.96,-350.04 -32.86,-65.98 -237.43,-282.47 -302.63,-350.65 4.72,-4.77 9.68,-9.35 14.89,-13.75 215.4,-181.63 865.56,-298.77 956.49,-314.45 65.68,37.21 462.97,264.18 747.45,470.9 -131.13,-89.01 -675.69,-384.24 -776.34,-380.65 -108.7,3.87 -644.48,151.41 -667.77,221.29 -23.3,69.89 104.82,260.13 194.11,364.95 89.29,104.82 353.29,7.76 500.83,15.53 81.01,4.26 176.08,49.51 245.33,89.43 -9.33,25.37 -14.51,59.41 -17.35,91.84 z m 545.91,-384.01 1.76,1.36 c -0.62,-0.41 -1.18,-0.9 -1.76,-1.36"
         style="fill:#db8f5c;fill-opacity:1;fill-rule:nonzero;stroke:none"
         id="path80" />
      <path
         d="m 2701.95,10557.4 c 95.22,23.1 204.8,82.4 271.96,119.9 9.05,5 20.39,5.4 30.07,0 57.51,-32 144.21,-77.6 217.62,-89.2 46.45,-7.4 87.74,0.7 109.47,41 -53.48,5.5 -113.19,53.7 -172.65,101.8 -66.66,53.9 -133.03,107.6 -158.74,78.4 -11.2,-12.5 -30.46,-13.9 -43.31,-3 -35.01,29.8 -115.74,-35 -196.96,-100.2 -71.14,-57.1 -142.61,-114.5 -205.65,-122.1 28.14,-40.3 84.89,-42 148.19,-26.6"
         style="fill:#9c4706;fill-opacity:1;fill-rule:nonzero;stroke:none"
         id="path82" />
      <path
         d="m 3299.8,10636.6 c -45.01,16.4 -93.27,55.4 -141.38,94.3 -66.66,53.9 -133.03,107.6 -158.74,78.4 -11.2,-12.5 -30.46,-13.9 -43.31,-3 -35.01,29.8 -115.74,-35 -196.96,-100.2 -56.58,-45.4 -113.33,-91 -165.93,-111.6 29.46,-10.1 67.6,-7.3 108.47,2.7 95.22,23.1 204.8,82.4 271.96,119.9 9.05,5 20.39,5.4 30.07,0 57.51,-32 144.21,-77.6 217.62,-89.3 29.33,-4.6 56.61,-3.1 78.2,8.8"
         style="fill:#bf7515;fill-opacity:1;fill-rule:nonzero;stroke:none"
         id="path84" />
      <path
         d="m 3128.15,11481.7 v 0 l 2.59,-2.7 0.21,-0.2 4.44,-4.9 0.47,-0.5 0.82,-0.9 1.7,-2 1.11,-1.3 1.38,-1.6 2.46,-2.9 1.71,-2 0.74,-0.9 1.99,-2.4 0.42,-0.6 2.26,-2.8 0.14,-0.2 2.36,-3 0.15,-0.2 2.19,-2.9 0.44,-0.6 1.86,-2.5 0.73,-1 1.55,-2.1 0.98,-1.4 1.27,-1.8 1.25,-1.7 0.97,-1.5 1.51,-2.2 0.69,-1 1.76,-2.6 0.4,-0.6 2.01,-3.1 0.14,-0.2 2.11,-3.4 0.13,-0.1 1.95,-3.2 0.37,-0.6 1.7,-2.8 0.61,-1 1.41,-2.4 0.84,-1.5 1.15,-1.9 1.07,-1.9 0.88,-1.6 1.31,-2.4 0.63,-1.1 1.51,-2.9 0.39,-0.7 1.72,-3.3 0.15,-0.3 1.85,-3.6 0.07,-0.1 1.72,-3.5 0.3,-0.6 1.48,-3.1 0.51,-1 1.23,-2.7 0.72,-1.5 0.99,-2.2 0.92,-2 0.77,-1.8 1.09,-2.5 0.55,-1.3 1.27,-3 0.35,-0.8 1.43,-3.5 0.15,-0.4 1.53,-3.9 0.06,-0.1 1.46,-3.8 0.25,-0.7 1.23,-3.3 0.41,-1.1 1.03,-2.9 0.58,-1.6 0.83,-2.4 0.74,-2.2 0.65,-1.9 0.87,-2.7 0.47,-1.4 1,-3.2 0.3,-0.9 1.13,-3.8 0.14,-0.4 1.23,-4.2 0.02,-0.1 1.18,-4.1 0.16,-0.6 1,-3.7 0.3,-1.1 0.83,-3.2 0.42,-1.7 0.66,-2.6 0.54,-2.2 0.51,-2.1 0.65,-2.9 0.37,-1.5 0.74,-3.4 0.23,-1.1 0.83,-3.9 0.1,-0.5 0.9,-4.5 0.02,-0.1 0.85,-4.5 0.1,-0.6 0.72,-3.9 0.2,-1.2 0.58,-3.4 0.3,-1.8 0.45,-2.8 0.36,-2.4 0.35,-2.3 0.42,-2.9 0.23,-1.8 0.48,-3.5 0.16,-1.2 0.5,-4.2 0.07,-0.6 0.55,-4.8 c 4.26,-39.1 4.45,-81.7 -0.03,-127.8 -7.27,-74.8 53,-265.4 90.12,-382.8 l 12.22,-39.3 c 7.86,-0.6 14.61,1 19.98,5.5 13.14,10.9 32.64,9.1 43.56,-4 5.73,-6.9 7.96,-15.6 6.89,-23.8 -1.78,-13.6 -4.28,-26.1 -7.43,-37.6 44.95,-47.5 73.81,-101.6 88.97,-157.8 19.15,-71 16.43,-145.3 -3.19,-214.1 -19.53,-68.5 -56.03,-131.9 -104.48,-181.4 -37.1,-37.8 -81.32,-67.6 -130.43,-85.42 2.78,-21.98 7.05,-42.79 13.53,-57.9 l 0.19,-0.46 c 19.51,-41.34 435.69,-214.2 531.27,-253.45 155.41,162.81 52.53,306.33 -54.44,455.43 l -35.76,50.3 c -77.61,111.5 -163.71,265.1 -243.38,457.6 -65.98,159.3 -127.72,345.6 -176.77,556.7 -1.46,6.3 -3.01,12.5 -4.6,18.6 l -0.05,0.3 -0.12,0.5 -0.25,0.8 c -1.5,5.8 -3.03,11.4 -4.65,17 l -0.28,1 -0.13,0.4 c -1.74,6 -3.52,11.9 -5.38,17.7 l -0.09,0.2 c -1.69,5.3 -3.42,10.5 -5.21,15.6 l -0.64,1.9 -0.35,0.9 c -1.65,4.7 -3.34,9.4 -5.07,13.9 l -0.84,2.3 -0.35,0.9 c -1.89,4.9 -3.83,9.7 -5.8,14.5 l -0.83,2 c -1.99,4.7 -4.01,9.4 -6.09,14 l -0.79,1.8 c -2.04,4.5 -4.12,8.9 -6.24,13.3 l -1.26,2.6 c -2.01,4.2 -4.07,8.2 -6.15,12.2 l -1.41,2.7 c -2.11,4 -4.27,8 -6.46,11.9 l -0.67,1.2 -0.47,0.9 c -2.19,3.8 -4.42,7.7 -6.68,11.4 l -1.94,3.3 c -2.05,3.4 -4.15,6.7 -6.26,10 l -1.02,1.7 h -0.06 l -0.86,1.3 c -2.29,3.6 -4.6,7.1 -6.94,10.5 l -0.52,0.8 -0.18,0.2 -0.72,1.1 -7.56,10.7 h -0.07 l -0.42,0.6 -0.81,1.1 -6.67,8.9 -3.56,4.6 -5.28,6.6 -3.82,4.6 -5.81,6.8 -3.23,3.7 -6.39,7.1 -3.1,3.3 -3.13,3.3 -3.14,3.3 -5.93,6 -0.95,0.9 -8.4,8.1 -0.65,0.6 -3.23,3 c 1.78,-3.9 3.46,-7.7 4.97,-11.6"
         style="fill:#856f5a;fill-opacity:1;fill-rule:nonzero;stroke:none"
         id="path86" />
      <path
         d="m 2507.26,11502.2 c 75.5,56.3 162.99,90.4 254.52,100.4 34.57,3.8 69.73,4 104.43,0.7 l 2.28,-0.3 1.88,-0.2 h 0.4 l 2.28,-0.3 1.46,-0.1 0.81,-0.1 2.29,-0.3 1.04,-0.1 1.23,-0.2 2.25,-0.3 h 0.66 l 1.61,-0.3 2.28,-0.3 h 0.24 l 2.03,-0.3 2.09,-0.3 h 0.16 l 2.26,-0.4 1.68,-0.2 0.59,-0.1 2.25,-0.4 1.29,-0.2 0.96,-0.2 2.26,-0.4 0.88,-0.1 1.36,-0.3 2.25,-0.4 0.47,-0.1 1.76,-0.3 2.26,-0.4 h 0.07 l 2.17,-0.5 1.9,-0.4 h 0.33 l 2.24,-0.5 1.49,-0.3 0.72,-0.2 2.24,-0.4 1.11,-0.3 1.11,-0.2 2.24,-0.6 0.7,-0.1 1.51,-0.4 2.21,-0.5 0.31,-0.1 1.9,-0.4 2.14,-0.6 h 0.08 l 2.2,-0.5 1.73,-0.5 0.48,-0.1 2.2,-0.6 1.32,-0.4 0.88,-0.2 2.18,-0.6 0.93,-0.3 1.27,-0.3 2.19,-0.7 0.52,-0.1 1.66,-0.5 2.18,-0.6 0.14,-0.1 2.03,-0.6 1.92,-0.6 0.24,-0.1 2.17,-0.7 1.53,-0.4 0.63,-0.3 2.17,-0.7 1.13,-0.3 1.02,-0.4 2.14,-0.7 0.76,-0.3 1.39,-0.4 4.28,-1.6 2.12,-0.7 h 0.03 l 2.13,-0.8 h 0.09 l 4.16,-1.6 1.33,-0.5 0.78,-0.3 2.11,-0.9 0.95,-0.3 1.15,-0.5 2.11,-0.9 2.1,-0.8 2.09,-0.9 0.19,-0.1 3.79,-1.6 0.18,-0.1 2.07,-0.9 1.53,-0.6 0.56,-0.3 -0.92,1.3 -5.49,8 h -0.02 l -4.99,2.4 -5,2.3 -4.98,2.2 -4.95,2.1 c -4.95,2.2 -9.86,4.2 -14.74,6.1 l -4.88,1.9 -4.82,1.8 -4.81,1.8 -4.78,1.7 -4.74,1.6 c -6.17,2.1 -12.28,4.1 -18.24,5.9 l -0.76,0.2 -4.19,1.3 -4.51,1.3 -4.38,1.2 -0.09,0.1 -4.42,1.1 -1.36,0.4 -6.63,1.7 -0.73,0.2 -4.28,1.1 h -0.31 l -3.91,1 h -0.09 l -8.21,1.8 -4.04,0.9 -0.69,0.2 -3.33,0.6 -3.93,0.8 -0.84,0.2 -3.05,0.6 -3.8,0.7 -0.99,0.2 -2.76,0.4 -3.68,0.7 -1.11,0.2 -2.5,0.4 -3.54,0.5 -1.23,0.2 -2.24,0.4 -3.4,0.5 -1.34,0.2 -1.99,0.2 -3.24,0.4 -1.42,0.2 -1.74,0.2 -3.09,0.4 -1.48,0.2 -1.51,0.2 -2.92,0.3 -1.54,0.1 -1.3,0.2 -2.73,0.2 -1.56,0.2 -1.1,0.1 -2.57,0.2 -1.56,0.1 -0.9,0.1 -2.38,0.2 -1.57,0.1 h -0.72 l -2.18,0.2 h -1.53 l -0.57,0.1 -1.99,0.1 -1.46,0.1 h -0.42 l -1.78,0.1 h -1.37 -0.3 l -1.57,0.1 h -1.27 -0.19 l -1.34,0.1 h -1.14 -0.11 -1.11 -0.97 -0.05 -0.88 -0.77 -4.79 c -0.6,0.1 -125.37,12 -268.63,-127.2"
         style="fill:#bf7515;fill-opacity:1;fill-rule:nonzero;stroke:none"
         id="path88" />
      <path
         d="m 2478.19,10606.9 c -19.76,16.1 -44.34,28 -68.74,39.9 -41.05,19.9 -81.7,39.7 -111.01,79.7 -47.49,65 -18.45,368.6 -13.5,416.6 -26.38,-66.6 -51.38,-142.1 -74.17,-228.1 -7.74,-29.2 -15.56,-58.1 -23.4,-86.8 11.98,-74.8 -1.83,-143.6 -15.62,-212.2 -22.59,-112.4 -45.16,-224.8 68.84,-356.3 5,26 14.33,52.7 26.3,82.2 6.43,15.9 24.55,23.6 40.41,17.1 12.87,-5.2 20.34,-18.1 19.26,-31.2 -0.74,-104.2 78.11,-147.9 155.2,-190.5 31.2,-17.2 62.17,-34.4 89.49,-55.3 l 0.47,8.8 c 0.3,17.4 -3.27,35.2 -10.19,53.1 -6.17,15.9 1.77,33.8 17.71,40 10.48,4.1 21.83,2 30.13,-4.4 16.13,-11.7 253.89,-182.62 354.2,-166.6 108.68,17.4 298,166.1 298.53,166.5 13.45,10.5 32.92,8.1 43.44,-5.3 5.14,-6.6 7.2,-14.6 6.37,-22.3 -2.39,-23.2 -7.46,-44.5 -14.72,-64.4 13.86,10.1 26.94,21.5 39.12,34 41.12,41.9 72.2,96.1 88.96,154.8 16.68,58.5 19.05,121.4 2.94,181.1 -10.74,39.9 -29.81,78.5 -58.41,113.6 -36.39,-45.4 -94.07,-54.1 -157.92,-44 -76.79,12.2 -161.89,54.6 -222.88,88 -70.65,-39.1 -176.54,-94.4 -272.51,-117.7 -113.57,-27.6 -213.18,-12.9 -238.3,109.7"
         style="fill:#bf7515;fill-opacity:1;fill-rule:nonzero;stroke:none"
         id="path90" />
      <path
         d="m 2476.46,10608.3 c -19.46,15.4 -43.32,27 -67.01,38.5 -41.05,19.9 -81.7,39.7 -111.01,79.7 -47.49,65 -18.45,368.6 -13.5,416.6 -26.38,-66.6 -51.38,-142.1 -74.17,-228.1 -7.74,-29.2 -15.56,-58.1 -23.4,-86.8 11.98,-74.8 -1.83,-143.6 -15.62,-212.2 -22.59,-112.4 -45.16,-224.8 68.84,-356.3 5,26 14.33,52.7 26.3,82.2 6.43,15.9 24.55,23.6 40.41,17.1 12.87,-5.2 20.34,-18.1 19.26,-31.2 -0.74,-104.2 78.11,-147.9 155.2,-190.5 31.2,-17.2 62.17,-34.4 89.49,-55.3 l 0.47,8.8 c 0.3,17.4 -3.27,35.2 -10.19,53.1 -6.17,15.9 1.77,33.8 17.71,40 10.48,4.1 21.83,2 30.13,-4.4 16.13,-11.7 253.89,-182.62 354.2,-166.6 108.68,17.4 298,166.1 298.53,166.5 13.45,10.5 32.92,8.1 43.44,-5.3 5.14,-6.6 7.2,-14.6 6.37,-22.3 -2.39,-23.2 -7.46,-44.5 -14.72,-64.4 13.86,10.1 26.94,21.5 39.12,34 41.12,41.9 72.2,96.1 88.96,154.8 16.68,58.5 19.05,121.4 2.94,181.1 -10.74,39.9 -29.81,78.5 -58.41,113.6 -18.99,-23.7 -43.82,-37.4 -72.28,-43.7 92.44,-245.6 -197.22,-396.7 -325.34,-396.7 -128.12,0 -368.82,178.6 -415.41,178.6 -46.59,0 -62.12,-116.5 -62.12,-116.5 0,0 -120.35,186.4 -85.42,299 16.59,53.4 43.51,91.5 67.23,116.7"
         style="fill:#9c4706;fill-opacity:1;fill-rule:nonzero;stroke:none"
         id="path92" />
      <path
         d="m 3258.64,10731.1 c -38.64,122.5 -94.51,304.8 -86.43,387.9 4.05,41.7 3.89,80.2 0.03,115.5 -10.76,98.7 -50.73,171.8 -106.67,221.8 -56.22,50.3 -129.08,77.9 -205.16,85.3 -30.33,3 -61.35,2.7 -92.08,-0.6 -98.51,-10.8 -191.86,-53.4 -267.08,-124.7 -70.69,-67.1 -125.59,-159.6 -154.23,-275.3 -2.81,-26.6 -34.12,-329.2 1.39,-377.8 20.22,-27.7 53.96,-44.1 87.98,-60.6 30.72,-14.9 61.73,-30 88.62,-54.2 39.58,-19.2 117.79,43.6 195.55,106 91.04,73 181.56,145.7 252.7,113.8 62.68,41.4 143.17,-23.6 224.01,-89 20.82,-16.8 41.71,-33.7 61.37,-48.1"
         style="fill:#ffcba8;fill-opacity:1;fill-rule:nonzero;stroke:none"
         id="path94" />
      <path
         d="m 3001.16,11500.8 c -43.08,22.6 -91.24,36 -140.75,40.8 -30.33,3 -61.35,2.7 -92.08,-0.6 -98.51,-10.8 -191.86,-53.4 -267.08,-124.7 -70.69,-67.1 -125.59,-159.6 -154.23,-275.3 -2.81,-26.6 -34.12,-329.2 1.39,-377.8 20.22,-27.7 53.96,-44.1 87.98,-60.6 30.72,-14.9 61.73,-30 88.62,-54.2 39.58,-19.2 117.79,43.6 195.55,106 39.39,31.6 78.67,63.1 116.34,86.2 0,0 -189.04,-106.4 -245.33,-120 -56.3,-13.6 -201.9,73.8 -199.94,124.2 1.95,50.5 20.01,457.8 174.7,586.3 154.69,128.5 434.83,69.7 434.83,69.7"
         style="fill:#db8f5c;fill-opacity:1;fill-rule:nonzero;stroke:none"
         id="path96" />
      <path
         d="m 1711.78,9278.07 c 136.6,-118.95 938.83,-807.99 1167.54,-782.54 204.29,22.73 623.16,387.58 905.38,705.22 85.12,95.82 157.56,187.26 207.57,263.5 46.96,71.63 73.36,127.08 70.17,155.76 -0.29,2.56 -0.76,4.19 -1.38,4.74 l -1.26,1.2 c -14.78,12.57 -41.63,27.69 -74.33,43.54 -26.43,12.82 -56.26,25.9 -86.63,38.51 -30.07,-46.66 -77.04,-94.79 -145.57,-144.9 -314.46,-229.97 -770.88,-486.19 -772.2,-486.93 -6.88,-3.86 -14.61,-4.79 -21.76,-3.24 -37.24,6.23 -757.17,128.71 -995.67,329.8 -26.51,22.36 -47.73,48.07 -64.3,77.02 -99.64,-79.79 -161.84,-163.39 -187.56,-201.68"
         style="fill:#cabcaf;fill-opacity:1;fill-rule:nonzero;stroke:none"
         id="path98" />
      <path
         d="m 3864.06,9293.31 c 50.87,61.65 94.61,119.72 128.21,170.94 46.96,71.63 73.36,127.08 70.17,155.76 -0.29,2.56 -0.76,4.19 -1.38,4.74 l -1.26,1.2 c -14.78,12.57 -41.63,27.69 -74.33,43.54 -26.43,12.82 -56.26,25.9 -86.63,38.51 -11.01,-17.06 -24.26,-34.34 -40.01,-51.82 41.86,-5.95 107.64,-22.86 117.45,-70.59 14.54,-70.77 -111.93,-291.77 -112.22,-292.28"
         style="fill:#cabcaf;fill-opacity:1;fill-rule:nonzero;stroke:none"
         id="path100" />
      <path
         d="m 1711.78,9278.07 c 136.6,-118.95 938.83,-807.99 1167.54,-782.54 144.36,16.06 395.89,202.98 630.63,423.35 -3,-1.89 -485.52,-306.88 -663.56,-287.52 -178.58,19.4 -861.9,473.63 -858.01,559.05 2.54,55.75 119.16,78.39 199.87,87.43 -90.7,37.24 -170.2,79.02 -224.61,124.89 -26.51,22.36 -47.73,48.07 -64.3,77.02 -99.64,-79.79 -161.84,-163.39 -187.56,-201.68"
         style="fill:#856f5a;fill-opacity:1;fill-rule:nonzero;stroke:none"
         id="path102" />
      <path
         d="m 2798,5103.48 c -191.31,54.37 -380.12,168.93 -560.39,278.32 -118.54,71.93 -233.36,141.61 -341.92,189.41 -152.89,67.36 -258.5,60.1 -332.54,22.21 -72.62,-37.15 -117.2,-104.94 -146.18,-160.46 -12.96,-44.9 -178.78,-619.96 -175.29,-703.99 0.14,-3.75 4.63,5.28 13.08,5.62 22.15,0.91 55.62,7.43 95.63,15.18 140.44,27.27 358.15,69.49 561.84,-37.3 168.93,-88.57 281.32,-185.02 364.93,-256.76 70.75,-60.73 119.09,-102.18 155.44,-100.79 39.74,1.52 144.26,246.97 236.95,464.68 47.75,112.22 92.58,217.46 128.45,283.88"
         style="fill:#735137;fill-opacity:1;fill-rule:evenodd;stroke:none"
         id="path104" />
      <path
         d="m 2832.93,5103.48 c -191.3,54.37 -415.05,168.93 -595.32,278.32 -118.54,71.93 -233.36,141.61 -341.92,189.41 -152.89,67.36 -258.5,60.1 -332.54,22.21 -72.62,-37.15 -117.2,-104.94 -146.18,-160.46 -8.45,-29.28 -81.92,-284.09 -131.04,-481.11 49.2,71.4 72.49,289.78 392.78,348.03 320.29,58.25 640.58,-230.04 660.97,-334.86 17.59,-90.38 -155.34,-330.15 -203.3,-394.47 55.31,-41.5 101.26,-80.93 140.78,-114.84 70.75,-60.73 119.09,-102.18 155.44,-100.79 39.74,1.52 162.72,230.47 255.4,448.18 47.76,112.22 109.07,233.96 144.93,300.38"
         style="fill:#57371f;fill-opacity:1;fill-rule:evenodd;stroke:none"
         id="path106" />
      <path
         d="m 4318.61,5047.71 c -3.13,0.06 -6.28,0.16 -9.5,0.37 -45.36,2.94 -97.61,24.93 -160.66,51.49 -20.58,8.66 -42.52,17.92 -69.67,28.57 -116.46,45.73 -332.07,16.86 -562.76,-14.07 -176.99,-23.71 -362.7,-48.59 -524.59,-42.53 6.9,-133.39 34.63,-612.52 79.02,-657.33 49.16,-21.91 324.36,-25.09 605.51,-6.06 280.69,19 562.96,59.74 620.22,125.18 1.89,2.15 3.3,4.15 4.12,5.9 43.67,91.15 34.59,206.89 25.43,323.42 -4.86,61.96 -9.76,124.21 -7.12,185.06"
         style="fill:#735137;fill-opacity:1;fill-rule:evenodd;stroke:none"
         id="path108" />
      <path
         d="m 4318.61,5047.71 c -3.13,0.06 -6.28,0.16 -9.5,0.37 -45.36,2.94 -97.61,24.93 -160.66,51.49 -20.58,8.66 -42.52,17.92 -69.67,28.57 -116.46,45.73 -332.07,16.86 -562.76,-14.07 -176.99,-23.71 -362.7,-48.59 -524.59,-42.53 6.9,-133.39 34.63,-612.52 79.02,-657.33 18.35,-8.17 68.16,-13.74 138.01,-16.52 -11.58,112.88 -28.07,440.75 3.23,517.78 37.84,93.19 445.5,116.46 655.16,125.2 121.19,5.05 312.45,-40.52 452.26,-79.86 -1.31,29.16 -1.75,58.18 -0.5,86.9"
         style="fill:#57371f;fill-opacity:1;fill-rule:evenodd;stroke:none"
         id="path110" />
      <path
         d="m 2255.52,4392.66 -18.65,15.97 c -81.53,69.93 -191.12,163.98 -353.27,249.01 -184.32,96.65 -389.31,56.88 -521.55,31.2 -42.03,-8.13 -77.18,-14.98 -104.86,-16.13 -6.6,-0.26 -12.82,-0.25 -18.63,0.11 -10.77,-190.19 -43.15,-835.12 4.63,-968.96 14.83,-41.55 25.53,-109.22 39.57,-198.07 39.39,-249.27 106.05,-670.9 365.68,-1120.66 25.4,-43.85 83.71,-62.84 154.04,-62.84 44.6,0 93.57,7.69 142.29,21.65 49.14,14.09 97.86,34.46 141.48,59.64 l 1.62,0.88 c 91.61,53.25 160.39,127.17 160.39,206.75 0,38.15 1.08,89.26 2.19,142.91 3.73,179.64 8.09,390.06 -29.64,519.16 -35.46,121.28 -102.02,219.48 -151.69,292.78 -34.08,50.27 -60.87,89.78 -68.16,122.62 -15.89,71.5 206.4,592.37 254.56,703.98"
         style="fill:#ffcba8;fill-opacity:1;fill-rule:evenodd;stroke:none"
         id="path112" />
      <path
         d="m 2255.52,4392.66 -18.65,15.97 c -81.53,69.93 -191.12,163.98 -353.27,249.01 -166.72,87.42 -350.35,63.23 -481.74,38.81 0,0 314.73,15.25 479.24,-114.33 164.51,-129.58 133.94,-165.98 104.82,-237.32 -29.13,-71.35 -257.68,-547.4 -205.26,-687.17 52.42,-139.78 326.66,-688.27 302.82,-978.38 -23.84,-290.11 -138.71,-335.31 -138.71,-335.31 49.14,14.09 97.86,34.46 141.48,59.64 l 1.62,0.88 c 91.61,53.25 160.39,127.17 160.39,206.75 0,38.15 1.08,89.26 2.19,142.91 3.73,179.64 8.09,390.06 -29.64,519.16 -35.46,121.28 -102.02,219.48 -151.69,292.78 -34.08,50.27 -60.87,89.78 -68.16,122.62 -15.89,71.5 206.4,592.37 254.56,703.98"
         style="fill:#db8f5c;fill-opacity:1;fill-rule:evenodd;stroke:none"
         id="path114" />
      <path
         d="m 2311.47,2711.23 c -0.61,-32.98 -1.09,-65.66 -1.09,-100.02 0,-104.34 -82.05,-196.59 -191.33,-260.17 l -1.74,-1.09 c -48.25,-27.86 -101.81,-50.29 -155.57,-65.7 -54.19,-15.53 -108.99,-24.09 -159.26,-24.09 -91.65,0 -169.76,28.37 -207.62,93.94 -24.16,41.86 -46.66,83.45 -67.67,124.69 -6.49,-31.05 -7.44,-59.38 -3.66,-84.95 7.8,-52.82 36.36,-95.01 77.68,-126.23 43.39,-32.75 100.94,-53.93 164.04,-63.27 93.47,-13.82 198.2,-1.75 288.13,36.63 68.98,29.44 132.6,70.99 182.92,120.23 46.79,45.78 81.99,98 99.02,152.96 l 1.54,5.21 c 2.05,9.01 4.09,17.77 6.12,26.25 7.74,43.81 3.6,89.19 -15.66,134.27 -4.45,10.43 -9.72,20.9 -15.85,31.34"
         style="fill:#cabcaf;fill-opacity:1;fill-rule:evenodd;stroke:none"
         id="path116" />
      <path
         d="m 1663.39,922.883 c -126.21,220.257 -256.46,212.177 -282.75,207.967 -49.48,-33.61 -92.14,-63.04 -120.21,-87.19 l -4.44,-4.16 c -20.21,-21.41 -36.71,-62.437 -43.45,-104.398 -6.38,-39.602 -4,-78.125 12.53,-97.356 l 2.28,-2.375 c 15.97,-15.09 80.62,-7.43 165.02,10.988 81.98,17.891 179.16,46.907 271.02,76.524"
         style="fill:#cabcaf;fill-opacity:1;fill-rule:evenodd;stroke:none"
         id="path118" />
      <path
         d="m 1663.39,922.883 c -23.42,40.867 -46.98,73.883 -69.99,100.507 -157.89,-52.859 -300.41,-89.82 -381.32,-91.23 -5.79,-38.558 -3.13,-75.66 12.99,-94.414 l 2.28,-2.375 c 15.97,-15.09 80.62,-7.43 165.02,10.988 81.98,17.891 179.16,46.907 271.02,76.524"
         style="fill:#856f5a;fill-opacity:1;fill-rule:evenodd;stroke:none"
         id="path120" />
      <path
         d="m 1748.89,730.742 c -18.16,51.821 -37.02,97.074 -56.18,136.481 -96.77,-31.395 -200.31,-62.578 -287.24,-81.539 -103.08,-22.508 -186.97,-27.227 -220.59,4.539 l -6.89,7.238 c -8.73,10.141 -15.41,22.293 -20.23,35.812 -12.13,-15.476 -19.56,-30.918 -22.87,-45.777 -4.35,-19.496 -1.68,-38.527 6.49,-55.59 8.68,-18.136 23.62,-34.496 43,-47.508 34.55,-23.171 82.73,-35.425 136.01,-29.105 93.97,11.164 254.1,34.32 428.5,75.449"
         style="fill:#735137;fill-opacity:1;fill-rule:evenodd;stroke:none"
         id="path122" />
      <path
         d="m 1959.61,788.461 c -169.49,443.579 -382.59,453.469 -422.93,451.109 -25.88,-19.06 -51.91,-37.42 -77.3,-54.98 94.61,-25.78 239.26,-120.44 349.96,-438.965 l 19.71,5.105 c 43.38,11.426 87.16,23.981 130.56,37.731"
         style="fill:#ad6936;fill-opacity:1;fill-rule:evenodd;stroke:none"
         id="path124" />
      <path
         d="m 1959.61,788.461 c -54.16,141.73 -112.76,239.119 -168.75,306.049 -45.48,-17.47 -91.21,-34.32 -136.25,-50.13 53.4,-66.489 107.19,-161.978 154.73,-298.755 l 19.71,5.105 c 43.38,11.426 87.16,23.981 130.56,37.731"
         style="fill:#735137;fill-opacity:1;fill-rule:evenodd;stroke:none"
         id="path126" />
      <path
         d="m 2145.41,1099.46 c -111.42,243.92 -341.79,307.58 -405.07,320.76 -37.88,-44.59 -84.79,-87.44 -134.84,-127.81 79.37,-20.32 202.56,-85 317.79,-282.16 26.71,9.5 64.14,23.6 107.92,41.17 34.68,13.93 73.51,30.15 114.2,48.04"
         style="fill:#cabcaf;fill-opacity:1;fill-rule:evenodd;stroke:none"
         id="path128" />
      <path
         d="m 2145.41,1099.46 c -19.95,43.68 -43.75,81.56 -69.69,114.43 -69.27,-31.8 -146.29,-64.6 -225.59,-96.18 24.42,-30.53 48.96,-66.06 73.16,-107.46 26.71,9.5 64.14,23.6 107.92,41.17 34.68,13.93 73.51,30.15 114.2,48.04"
         style="fill:#856f5a;fill-opacity:1;fill-rule:evenodd;stroke:none"
         id="path130" />
      <path
         d="m 2201.97,882.633 c -6.04,59.195 -17.8,111.984 -33.77,159.087 -39.83,-17.45 -78.64,-33.63 -113.93,-47.806 -39.12,-15.707 -73.92,-28.894 -100.91,-38.617 22.33,-43.469 44.16,-92.317 65.12,-147.324 63.6,22.062 125.59,46.855 183.49,74.66"
         style="fill:#735137;fill-opacity:1;fill-rule:evenodd;stroke:none"
         id="path132" />
      <path
         d="m 2351.43,960.195 c -31.73,498.605 -426.5,582.215 -531.38,595.645 -8.41,-27.64 -21.91,-54.92 -39.25,-81.7 120.25,-32.12 427.83,-153.49 480.19,-561.96 32.3,16.531 62.44,32.504 90.44,48.015"
         style="fill:#ad6936;fill-opacity:1;fill-rule:evenodd;stroke:none"
         id="path134" />
      <path
         d="m 2351.43,960.195 c -9.27,145.655 -49.54,255.805 -104.49,339.235 -32.68,-18.26 -71.01,-37.95 -113.48,-58.4 60.83,-80.76 109.43,-187.64 127.53,-328.85 32.3,16.531 62.44,32.504 90.44,48.015"
         style="fill:#735137;fill-opacity:1;fill-rule:evenodd;stroke:none"
         id="path136" />
      <path
         d="m 2383.49,1146.17 c 12.82,-46.01 22.22,-96.47 27.38,-151.834 86.35,51.734 146.59,98.534 180.32,144.214 38.39,51.96 38.64,104.54 0.3,165.41 -13.08,-19.95 -32.6,-40.08 -56.97,-60.06 -39.5,-32.4 -92.47,-65.65 -151.03,-97.73"
         style="fill:#735137;fill-opacity:1;fill-rule:evenodd;stroke:none"
         id="path138" />
      <path
         d="m 1830.88,1616.84 c 101.51,-13.79 410.07,-82.2 533.14,-410.54 51.69,28.75 97.62,57.84 131.19,85.38 30.47,24.99 50.01,47.27 52.62,64.38 7.39,48.56 0.88,103.11 -14.16,156.78 -17.77,63.43 -47.31,125.25 -80.01,174.8 -14.7,22.25 -27.87,41.46 -40.18,59.42 -43.39,63.27 -76.74,111.85 -113.89,199.98 -21.87,51.85 -24.74,137.15 -17.35,231.77 4.07,51.98 11.19,107.27 19.9,161.49 -7.18,-7.93 -14.67,-15.67 -22.41,-23.26 -55.91,-54.71 -126.18,-100.69 -202.09,-133.08 -100.44,-42.88 -217.28,-56.39 -321.37,-41 -30.42,4.51 -59.86,11.49 -87.61,20.92 66.55,-126.7 176.32,-366.45 162.22,-547.04"
         style="fill:#cabcaf;fill-opacity:1;fill-rule:evenodd;stroke:none"
         id="path140" />
      <path
         d="m 2301.02,1331.74 c 24.03,-36.9 45.41,-78.51 63,-125.44 51.69,28.75 97.62,57.84 131.19,85.38 30.47,24.99 50.01,47.27 52.62,64.38 7.39,48.56 0.88,103.11 -14.16,156.78 -17.77,63.43 -47.31,125.25 -80.01,174.8 -14.7,22.25 -27.87,41.46 -40.18,59.42 -43.39,63.27 -76.74,111.85 -113.89,199.98 -21.87,51.85 -24.74,137.15 -17.35,231.77 4.07,51.98 11.19,107.27 19.9,161.49 -7.18,-7.93 -14.67,-15.67 -22.41,-23.26 -55.91,-54.71 -126.18,-100.69 -202.09,-133.08 -13.03,-5.57 -26.34,-10.62 -39.85,-15.2 37.45,-21.45 73.5,-56.21 92.3,-112.64 49.5,-148.49 29.12,-163.05 87.36,-267.87 58.23,-104.82 226.17,-292.75 139.75,-410.57 -9.12,-12.43 -28.63,-28.05 -56.18,-45.94"
         style="fill:#856f5a;fill-opacity:1;fill-rule:evenodd;stroke:none"
         id="path142" />
      <path
         d="m 4147.8,4408.38 c -127.84,-30.36 -298.62,-50.66 -467.72,-62.1 -213.2,-14.42 -426.06,-15.01 -546.45,-4.11 14.37,-181.27 75.4,-984.83 43.79,-1170.93 -20.51,-120.83 -46.82,-330.67 -51.87,-573.23 -3.39,-161.87 2.66,-338.53 26.16,-513.35 60.13,-21.04 287.51,-89.14 687.58,-79.14 116.83,381.21 111.93,857.89 109.54,1087.38 l -0.65,71.54 c 0,179.36 159.83,1033.86 199.62,1243.94"
         style="fill:#ffcba8;fill-opacity:1;fill-rule:evenodd;stroke:none"
         id="path144" />
      <path
         d="m 3927.45,4370 c -79.23,-10.18 -163.5,-18.05 -247.37,-23.72 -213.2,-14.42 -426.06,-15.01 -546.45,-4.11 14.37,-181.27 75.4,-984.83 43.79,-1170.93 -20.51,-120.83 -46.82,-330.67 -51.87,-573.23 -3.39,-161.87 2.66,-338.53 26.16,-513.35 39.76,-13.91 152.7,-48.4 340.33,-67.28 -1.3,0.46 -199,69.48 -242.55,121.71 -43.69,52.4 -5.81,253.32 -8.74,468.8 -2.92,215.47 84.49,596.93 61.2,783.27 -23.3,186.35 2.92,841.49 113.57,883.72 87.51,33.38 389.43,77.93 511.93,95.12"
         style="fill:#db8f5c;fill-opacity:1;fill-rule:evenodd;stroke:none"
         id="path146" />
      <path
         d="m 3905.59,2011.24 c -4.46,-15.3 -9.05,-30.48 -13.88,-45.5 -4.17,-13.03 -16.18,-21.36 -29.16,-21.5 -499.38,-15.74 -750.16,88.92 -750.88,89.22 -10.83,4.49 -17.74,14.42 -18.93,25.3 -2.23,15.79 -4.31,31.61 -6.27,47.44 -33.36,-25.02 -74.28,-69.22 -60.88,-129.56 20.18,-90.88 304.51,-119.81 499.87,-139.65 l 49.6,-5.09 c 86.17,-9.12 206.95,-11.82 291.73,11.13 32.03,8.68 57.97,20.69 72.78,36.9 11.95,13.1 16.45,30.78 10,54.13 -5.94,21.48 -20,47.01 -43.98,77.18"
         style="fill:#cabcaf;fill-opacity:1;fill-rule:evenodd;stroke:none"
         id="path148" />
      <path
         d="m 3024.02,345.48 c -17.95,-12.679 -31.71,-23.523 -40.85,-31.042 21.85,-95.684 53.19,-173.774 100.13,-197.915 52.46,-26.9605 200.68,-56.3121 350.35,-51.7535 82.23,2.5 164.06,15.4453 228.75,44.9765 60.37,27.551 105.61,70.113 120.55,132.992 2.21,9.367 3.8,19.227 4.69,29.578 -3.34,-4.011 -6.83,-7.902 -10.47,-11.726 -43.46,-45.481 -107.13,-76.594 -179.02,-94.906 -69.68,-17.731 -147.86,-23.664 -222.76,-19.246 -142.77,8.453 -275.82,55.957 -321.84,132.8 -9.51,15.848 -17.52,32.981 -24.23,51.047 -1.87,5 -3.63,10.07 -5.3,15.195"
         style="fill:#735137;fill-opacity:1;fill-rule:evenodd;stroke:none"
         id="path150" />
      <path
         d="m 3771.5,377.648 c -279,193.352 -549.13,89.395 -693.39,3.032 2.73,-9.985 5.79,-19.617 9.21,-28.809 5.39,-14.476 11.78,-28.191 19.37,-40.832 35.04,-58.496 148.11,-95.383 272.33,-102.726 68.66,-4.051 140.23,1.359 203.84,17.554 61.37,15.621 114.7,41.117 149.41,77.438 19.74,20.675 33.52,45.379 39.23,74.343"
         style="fill:#cabcaf;fill-opacity:1;fill-rule:evenodd;stroke:none"
         id="path152" />
      <path
         d="m 3771.5,377.648 -7.24,4.895 c -92.65,-71.258 -217.32,-117.41 -395.44,-101.156 -84.41,7.715 -143.96,68.16 -185.19,152.715 -39.93,-16.676 -75.46,-35.43 -105.52,-53.422 2.73,-9.985 5.79,-19.617 9.21,-28.809 5.39,-14.476 11.78,-28.191 19.37,-40.832 35.04,-58.496 148.11,-95.383 272.33,-102.726 68.66,-4.051 140.23,1.359 203.84,17.554 61.37,15.621 114.7,41.117 149.41,77.438 19.74,20.675 33.52,45.379 39.23,74.343"
         style="fill:#856f5a;fill-opacity:1;fill-rule:evenodd;stroke:none"
         id="path154" />
      <path
         d="m 2969.57,382.422 c 113.15,84.43 445.91,287.152 800.32,70.187 l -5.01,34.051 c -127.66,84.535 -279.86,122.817 -426.38,110.824 -139.09,-11.39 -273.03,-68.32 -375.62,-174.14 2.1,-13.754 4.33,-27.418 6.69,-40.922"
         style="fill:#ad6936;fill-opacity:1;fill-rule:evenodd;stroke:none"
         id="path156" />
      <path
         d="m 2969.57,382.422 c 39.47,29.441 105.67,73.266 190.16,108.656 -6.61,18.352 -12.56,37.383 -17.91,56.895 -65.52,-29 -126.36,-70.395 -178.94,-124.629 2.1,-13.754 4.33,-27.418 6.69,-40.922"
         style="fill:#735137;fill-opacity:1;fill-rule:evenodd;stroke:none"
         id="path158" />
      <path
         d="m 2999.59,913.023 c 133.79,118.047 368.46,233.697 692.21,50.942 l -0.8,3.75 c -31.87,147.925 13.41,384.015 60.37,628.745 10.87,56.7 21.85,113.94 31.91,170.22 -73.48,-6.29 -152.58,-2.96 -214.52,3.59 l -49.48,5.09 c -133.14,13.54 -303.99,30.92 -421.05,74.69 9.69,-131.16 27.14,-481.32 -48.42,-622.59 -58.08,-108.62 -56.34,-137.44 -52.49,-201.73 1.7,-28.437 3.79,-63.195 2.27,-112.707"
         style="fill:#cabcaf;fill-opacity:1;fill-rule:evenodd;stroke:none"
         id="path160" />
      <path
         d="m 2999.59,913.023 c 29.91,26.391 64.87,52.645 104.72,75.485 3.24,39.352 8.31,69.272 14.12,84.872 36.64,98.44 113.59,311.57 87.37,460.06 -11.78,66.69 44.76,171.08 110.63,265.85 -78.75,11.73 -156.05,27.52 -218.2,50.76 9.69,-131.16 27.14,-481.32 -48.42,-622.59 -58.08,-108.62 -56.34,-137.44 -52.49,-201.73 1.7,-28.437 3.79,-63.195 2.27,-112.707"
         style="fill:#856f5a;fill-opacity:1;fill-rule:evenodd;stroke:none"
         id="path162" />
      <path
         d="m 2925.68,837.414 c 4.82,5.703 9.95,11.586 15.39,17.609 -0.95,5.387 -1.8,10.653 -2.43,15.797 -1.3,10.438 -1.87,20.739 -1.43,30.899 l 0.39,10.617 c -5.48,-23.016 -9.79,-48.07 -11.92,-74.922"
         style="fill:#735137;fill-opacity:1;fill-rule:evenodd;stroke:none"
         id="path164" />
      <path
         d="m 2985.25,670.082 c -21.66,-21.32 -37.21,-38.93 -45.71,-49.055 3.66,-38.242 7.85,-79.656 13.01,-121.812 13.66,12.133 27.71,23.578 42.13,34.32 -1.23,21.113 -2.18,43.332 -3.13,65.449 l -0.88,20.317 c -0.76,16.941 -2.71,33.969 -5.42,50.781"
         style="fill:#735137;fill-opacity:1;fill-rule:evenodd;stroke:none"
         id="path166" />
      <path
         d="m 3731.09,735.305 c -292.4,234.82 -552.79,98.164 -692.09,-16.746 2.56,-11.567 4.88,-23.293 6.86,-35.075 3.32,-19.898 5.75,-40.48 6.68,-61.507 l 0.89,-20.301 1.25,-28.574 c 85.8,49.828 181.27,78.265 278.96,86.257 142.9,11.692 290.81,-20.472 420.18,-93.39 l -9.26,69.531 c -4.49,33.949 -8.88,67.02 -13.47,99.805"
         style="fill:#cabcaf;fill-opacity:1;fill-rule:evenodd;stroke:none"
         id="path168" />
      <path
         d="M 3105.41,767.684 C 3081,751.625 3058.78,734.863 3039,718.559 c 2.56,-11.567 4.88,-23.293 6.86,-35.075 3.32,-19.898 5.75,-40.48 6.68,-61.507 l 0.89,-20.301 1.25,-28.574 c 23.52,13.66 47.75,25.707 72.57,36.183 -10.72,52.313 -17.71,106.332 -21.84,158.399"
         style="fill:#856f5a;fill-opacity:1;fill-rule:evenodd;stroke:none"
         id="path170" />
      <path
         d="m 2931.72,703.945 c 115.51,117.285 424.28,364.905 786.39,118.223 -3.17,19.754 -6.51,39.582 -10.14,59.637 -466.74,299.405 -738.73,-80.68 -779.65,-144.032 l 3.4,-33.828"
         style="fill:#ad6936;fill-opacity:1;fill-rule:evenodd;stroke:none"
         id="path172" />
      <path
         d="m 2931.72,703.945 c 37.64,38.227 95.84,90.293 169.69,134.575 -0.87,25.761 -1.04,50.523 -0.67,73.746 -96.79,-64.676 -155.17,-147.77 -172.42,-174.493 l 3.4,-33.828"
         style="fill:#735137;fill-opacity:1;fill-rule:evenodd;stroke:none"
         id="path174" />
      <path
         d="m 1711.78,9278.07 c 136.6,-118.95 938.83,-807.99 1167.54,-782.54 204.29,22.73 623.16,387.58 905.38,705.22 85.12,95.82 157.56,187.26 207.57,263.5 46.96,71.63 73.36,127.08 70.17,155.76 -0.29,2.56 -0.76,4.19 -1.38,4.74 l -1.26,1.2 c -14.78,12.57 -41.63,27.69 -74.33,43.54 -26.43,12.82 -56.26,25.9 -86.63,38.51 -30.07,-46.66 -77.04,-94.79 -145.57,-144.9 -314.46,-229.97 -770.88,-486.19 -772.2,-486.93 -6.88,-3.86 -14.61,-4.79 -21.76,-3.24 -37.24,6.23 -757.17,128.71 -995.67,329.8 -26.51,22.36 -47.73,48.07 -64.3,77.02 -99.64,-79.79 -161.84,-163.39 -187.56,-201.68 z m 1411.4,2215.23 c 1.78,-3.9 3.46,-7.8 4.97,-11.6 55.57,-58.4 94.54,-138 105.72,-240.7 4.26,-39.1 4.45,-81.7 -0.03,-127.8 -7.27,-74.8 53,-265.4 90.12,-382.8 l 12.22,-39.3 c 7.86,-0.6 14.61,1 19.98,5.5 13.14,10.9 32.64,9.1 43.56,-4 5.73,-6.9 7.96,-15.6 6.89,-23.8 -1.78,-13.6 -4.28,-26.1 -7.43,-37.6 44.95,-47.5 73.81,-101.6 88.97,-157.8 19.15,-71 16.43,-145.3 -3.19,-214.1 -19.53,-68.5 -56.03,-131.9 -104.48,-181.4 -37.1,-37.8 -81.32,-67.6 -130.43,-85.42 2.78,-21.98 7.05,-42.79 13.53,-57.9 l 0.19,-0.46 c 19.51,-41.34 435.69,-214.2 531.27,-253.45 155.41,162.81 52.53,306.33 -54.44,455.43 l -35.76,50.3 c -77.61,111.5 -163.71,265.1 -243.38,457.6 -65.98,159.3 -127.72,345.6 -176.77,556.7 -31.66,136.2 -92.58,229.2 -161.51,292.6 z m -116.48,73.5 -0.92,1.3 -5.49,8 c -107.03,51.2 -204.44,53.3 -219.61,53.3 h -4.79 c -0.6,0.1 -125.37,12 -268.63,-127.2 75.5,56.3 162.99,90.4 254.52,100.4 34.57,3.8 69.73,4 104.43,0.7 48.66,-4.8 96.34,-16.8 140.49,-36.5 z m -119.11,-646.9 c -0.11,-0.1 -35.62,-27.1 -13.8,-59.6 35.69,16.2 69.3,21.4 99.47,7.9 26.88,17.7 57.06,15.9 89.11,2.9 11.23,15.5 28.7,44.1 31.38,75 1.28,14.9 -21.86,37.5 -49.73,64.8 -48.42,47.3 -79.14,82.9 -55.57,150.7 22.17,-73.6 55.18,-85.4 87.97,-117.4 36.57,-35.7 66.91,-65.4 63.74,-102.2 -3.27,-37.6 -22.25,-71.9 -36.45,-92.7 30.45,-19.1 61.97,-44.6 93.56,-70.1 20.82,-16.8 41.71,-33.7 61.37,-48.1 -38.64,122.5 -94.51,304.8 -86.43,387.9 4.05,41.7 3.89,80.2 0.03,115.5 -10.76,98.7 -50.73,171.8 -106.67,221.8 -56.22,50.3 -129.08,77.9 -205.16,85.3 -30.33,3 -61.35,2.7 -92.08,-0.6 -98.51,-10.8 -191.86,-53.4 -267.08,-124.7 -70.69,-67.1 -125.59,-159.6 -154.23,-275.3 -2.81,-26.6 -34.12,-329.2 1.39,-377.8 20.22,-27.7 53.96,-44.1 87.98,-60.6 30.72,-14.9 61.73,-30 88.62,-54.2 39.58,-19.2 117.79,43.6 195.55,106 38.35,30.8 76.61,61.5 113.4,84.3 -26.89,50.6 16.09,101.2 53.63,81.2 z m -409.4,-313 c -19.76,16.1 -44.34,28 -68.74,39.9 -41.05,19.9 -81.7,39.7 -111.01,79.7 -47.49,65 -18.45,368.6 -13.5,416.6 -26.38,-66.6 -51.38,-142.1 -74.17,-228.1 -7.74,-29.2 -15.56,-58.1 -23.4,-86.8 11.98,-74.8 -1.83,-143.6 -15.62,-212.2 -22.59,-112.4 -45.16,-224.8 68.84,-356.3 5,26 14.33,52.7 26.3,82.2 6.43,15.9 24.55,23.6 40.41,17.1 12.87,-5.2 20.34,-18.1 19.26,-31.2 -0.74,-104.2 78.11,-147.9 155.2,-190.5 31.2,-17.2 62.17,-34.4 89.49,-55.3 l 0.47,8.8 c 0.3,17.4 -3.27,35.2 -10.19,53.1 -6.17,15.9 1.77,33.8 17.71,40 10.48,4.1 21.83,2 30.13,-4.4 16.13,-11.7 253.89,-182.62 354.2,-166.6 108.68,17.4 298,166.1 298.53,166.5 13.45,10.5 32.92,8.1 43.44,-5.3 5.14,-6.6 7.2,-14.6 6.37,-22.3 -2.39,-23.2 -7.46,-44.5 -14.72,-64.4 13.86,10.1 26.94,21.5 39.12,34 41.12,41.9 72.2,96.1 88.96,154.8 16.68,58.5 19.05,121.4 2.94,181.1 -10.74,39.9 -29.81,78.5 -58.41,113.6 -36.39,-45.4 -94.07,-54.1 -157.92,-44 -76.79,12.2 -161.89,54.6 -222.88,88 -70.65,-39.1 -176.54,-94.4 -272.51,-117.7 -113.57,-27.6 -213.18,-12.9 -238.3,109.7 z m 223.76,-49.5 c 95.22,23.1 204.8,82.4 271.96,119.9 9.05,5 20.39,5.4 30.07,0 57.51,-32 144.21,-77.6 217.62,-89.2 46.45,-7.4 87.74,0.7 109.47,41 -53.48,5.5 -113.19,53.7 -172.65,101.8 -66.66,53.9 -133.03,107.6 -158.74,78.4 -11.2,-12.5 -30.46,-13.9 -43.31,-3 -35.01,29.8 -115.74,-35 -196.96,-100.2 -71.14,-57.1 -142.61,-114.5 -205.65,-122.1 28.14,-40.3 84.89,-42 148.19,-26.6 z m 484.48,-548.5 c -0.35,1.9 -0.5,3.9 -0.49,5.9 -0.93,11.9 -1.56,23.4 -1.99,34.1 -66.19,-42.3 -148.12,-87.11 -210.66,-97.12 -91.16,-14.58 -252,79.12 -339.73,136.32 -0.67,-25 -6.53,-50 -18.17,-74.7 -1.76,-4.2 -4.46,-8 -8.09,-11.2 -12.85,-11.24 -32.43,-9.94 -43.68,2.9 -26.96,30.9 -69.11,54.3 -111.73,77.8 -43.34,24 -87.19,48.3 -121.51,81.6 -3.27,-119 -12.57,-297.15 -38.96,-350.04 -32.86,-65.98 -237.43,-282.47 -302.63,-350.65 4.72,-4.77 9.68,-9.35 14.89,-13.75 215.4,-181.63 865.56,-298.77 956.49,-314.45 66.38,37.6 471.46,269.02 756.48,477.46 9.88,7.22 19.15,14.41 27.98,21.56 -126.71,52.7 -472.07,200.13 -530.78,265.05 -3.03,2.84 -5.55,6.34 -7.29,10.39 -11.11,25.86 -17.03,63.32 -20.13,98.83 z m -918.3,143.6 c -5.66,0.9 -11.13,3.4 -15.71,7.5 -135.83,121.8 -165.68,227.7 -161.73,328.5 l -7.08,-24.2 c -117.22,-402.2 -205.36,-704.71 -156.71,-887.78 48.38,32.49 103.06,62.72 164.05,87.41 65.62,72.43 129.21,146.55 145,178.16 21.05,41.94 29.09,197.51 32.18,310.41 z M 1832.54,7088.41 c 225.76,128.19 1247.44,646.22 2355.37,222.59 -3.03,29.65 -5.6,58.28 -7.55,85.29 -12.15,1.66 -24.73,5.48 -37.63,11.67 -33.88,16.26 -71.37,52.56 -115.44,95.25 -93.55,90.58 -219.93,212.9 -368.04,193.16 l -5.07,-0.69 c -8.46,-1.8 -16.84,-3.06 -25.09,-3.72 v 0.02 c -57.37,-9 -119.69,-22.17 -185.14,-36.01 l -1.18,-0.28 c -181.56,-38.42 -387.04,-81.86 -601.01,-61.12 -18.16,0.82 -36.45,2.98 -54.6,6.39 -118.07,12.53 -255.53,-16.85 -384.28,-62.5 -199.91,-70.87 -376.48,-179.71 -430.01,-233.24 -33.79,-33.79 -82.99,-74.59 -137.78,-107.93 l -8.07,-4.83 c 1.64,-20.97 4.05,-57.33 5.52,-104.05 z m 2363.07,152.98 c -686.23,272.82 -1341.35,171.95 -1789.28,27.68 4.72,-323.53 -145.34,-775.83 -438.95,-806.29 1.09,0.46 381.03,150.92 377.32,785.78 -273.74,-94.38 -459.43,-200.17 -510.91,-231.04 0.52,-130.88 -8.81,-307.22 -50.93,-463.11 -27.5,-101.79 -93.87,-248.66 -164.21,-404.42 -108.26,-239.68 -226.4,-501.26 -222.14,-629.82 32.31,48.18 76.45,96.58 138.5,128.33 88.99,45.55 212.51,55.76 385.69,-20.52 110.94,-48.86 228.06,-119.92 348.95,-193.28 232.59,-141.13 479.75,-291.13 719.05,-301.1 157.76,-6.56 342.83,18.23 519.08,41.86 239.01,32.02 462.41,61.94 593.57,10.44 22.58,-8.86 47.6,-19.41 71.12,-29.32 57.59,-24.24 105.33,-44.33 140.51,-46.62 53.27,-3.47 83.8,47.08 95.56,227.58 8.21,125.91 12.53,237.83 13.64,338.34 1.01,91.56 -0.61,174.76 -4.34,251.33 -21.31,0.6 -42.96,5.31 -63.83,15.94 -26.94,13.7 -39.51,38.39 -52.51,63.95 -8.87,17.47 -18.1,35.57 -30.27,42.95 -7.87,4.75 -26.67,5.55 -46.29,6.34 -31.83,1.29 -65.34,2.69 -92.25,21.39 -26.27,18.24 -39.25,45.83 -51.36,71.52 -7.57,16.1 -14.7,31.17 -20.79,34.68 -12.21,7 -24.95,8.18 -37.02,9.28 -32.02,2.9 -61.4,5.58 -94.52,55.02 -41.52,62 -17.13,130.37 32.09,196.35 -20.38,34.02 -51.75,102.51 -30.91,176.27 11.9,42.15 56.7,84.24 109.84,120.37 80.8,54.92 185.41,99.24 211.79,103.73 l 2.59,0.48 c -13.81,78.69 -32.68,195.38 -48.42,313.57 -3.66,27.53 -7.15,55.1 -10.37,82.34 z m -2680.55,83.77 c -88.09,-5.87 -192.74,-18.12 -283.31,-43.02 -70.1,-19.28 -131.41,-46.01 -168.36,-82.95 -79.21,-79.23 -35.31,-192.35 18.13,-330.03 38.79,-99.98 82.19,-211.83 91.8,-336.76 7.82,-101.79 13.6,-265.1 19.83,-442.36 11.99,-340.4 25.87,-733.27 60.2,-843.48 3.4,-10.92 10.39,-21.27 20.27,-30.95 4.28,-4.2 9.12,-8.28 14.44,-12.24 29.88,109.54 56.73,203.26 66.31,236.49 -67.02,127.29 77.16,446.54 207.72,735.63 69.29,153.44 134.67,298.12 160.84,394.95 59.9,221.65 50.87,487.16 44.21,591.19 -23.16,-10.11 -46.64,-18.15 -69.84,-23.26 -104.75,-23 -156.02,18.84 -174.88,104.63 -5.24,23.87 -7.48,51.45 -7.36,82.16 z M 1271,5140.19 c -15.5,9.49 -29.21,19.89 -40.8,31.25 -17.12,16.78 -29.51,35.66 -36.04,56.67 -36.72,117.81 -50.73,515.31 -62.88,859.74 -6.15,174.92 -11.85,336.09 -19.83,439.94 -8.93,116.07 -50.5,223.24 -87.69,319.04 -61.487,158.38 -111.987,288.56 -4.28,396.27 45.19,45.18 116.15,76.76 196,98.73 97.91,26.92 209.89,39.71 302.48,45.6 7.33,88.73 27.48,195.77 49.22,311.42 12.98,68.97 26.53,141.04 37.88,211.28 5.98,37.14 9.45,85.52 11.4,140.97 -82.91,-110.4 -196.39,-198.71 -324.14,-265.32 -191.12,-99.64 -414.793,-150.96 -615.507,-155.11 l -16.43,-5.39 C 598.492,7605.31 460.039,7560.64 372,7679.96 269.98,7818.11 152.566,8099.87 87.3477,8367.66 l -18.418,0.38 c -15.7578,0.3 -28.5274,12.35 -30.1602,27.63 -19.7773,153.17 -24.9179,193.05 -30.99216,240.12 -1.28906,10.07 2.44536,19.65 9.26176,26.2 l 20.9336,18.95 c -5.1407,104.84 5.6875,194.99 38.4218,256.85 20.4453,38.6 107.3555,152.22 190.6605,249.72 66.965,78.38 133.203,147.83 164.562,163.51 l 2.715,1.19 c 36.449,17.27 124.594,42.21 206.543,60.4 79.234,17.59 155.406,29 179.953,21.99 10.141,-2.89 21.692,-9.44 33.754,-18.33 130.953,116.83 250.898,222.99 336.508,297.15 79.78,69.08 134.21,113.87 147.48,119.56 15.66,6.71 82.68,33.65 170.48,68.74 l 332,132.18 c -139.01,1.2 -273.57,-7 -407.07,-15 -41.63,-2.5 -83.33,-5.1 -127.54,-7.4 l -7.71,-0.4 c -355.859,-18.9 -838.761,-44.55 -1110.894,184 -9.066,7.7 -13.344,20.3 -9.824,32.4 l 51.453,178.1 c 1.035,3.9 2.867,7.6 5.492,11 10.512,13.4 29.984,15.8 43.438,5.3 166.183,-129.4 525.582,-76.7 951.465,-14.4 209.42,30.7 434.69,63.7 663.28,78.7 -7.69,94.6 -19.35,194.1 -36.96,286.2 -5.28,27.7 -9.15,58.4 -11.41,91.3 -11.55,168.2 19.19,398 115.57,597.7 97.7,202.4 262.46,374.5 518.25,423.5 l 1.16,0.2 c 29.13,5.5 59.46,9.4 90.89,11.6 599.31,41.1 714.4,-434.6 765.29,-645 l 3.34,-13.7 c 2.04,-7.7 4,-15.5 5.85,-23.5 48.3,-207.8 108.88,-390.7 173.6,-547 77.84,-188.1 161.59,-337.6 236.95,-445.6 l 35.27,-49.6 c 45.67,-63.6 90.7,-126.4 119.78,-189.95 l 0.04,0.07 c 111.49,-66.28 221.09,-135.62 326.01,-201.98 363.73,-230.07 670.68,-424.19 875.32,-373.49 16.6,4.07 33.42,-6.09 37.48,-22.69 0.99,-4.02 1.13,-8.05 0.57,-11.88 l -25.41,-183.92 c -1.72,-12.54 -10.78,-22.3 -22.22,-25.57 -38.56,-11.13 -78.27,-18.19 -118.77,-21.71 -26.76,-2.34 -54,-3.14 -81.59,-2.52 55.87,-106.9 80.55,-216.09 85.36,-318.16 105.31,-83.55 183.9,-199.27 239.65,-329.43 66.34,-154.88 100.45,-330.66 108.95,-496.77 5.82,-113.45 26.84,-189.08 44.87,-254.02 31.8,-114.51 55.09,-198.41 -15.66,-383.64 -41.78,-109.4 -100.34,-258.59 -182.84,-420.31 -82.33,-161.39 -188.59,-335.33 -325.9,-494.79 -27.35,-47.31 -53.58,-97.84 -79.4,-147.6 -69.62,-134.17 -136.72,-263.45 -220.52,-320.92 -18.81,-12.91 -46.13,-27.97 -77.21,-37.2 3.93,-78.51 5.67,-164.65 4.61,-260.43 -1.13,-103.14 -5.46,-216.28 -13.65,-341.72 -10.51,-161.19 -39.58,-240.13 -88.83,-270.48 -4.42,-62.23 0.8,-129.1 6.03,-195.68 9.8,-124.7 19.52,-248.52 -31.49,-354.98 -3.36,-7.03 -7.85,-13.71 -13.35,-19.99 -22.18,-25.33 -67.5,-47.31 -128.43,-66.16 C 4188,4288.19 4010.3,3349.11 4010.3,3164.44 c 0,-31.66 0.19,-50.01 0.4,-71.05 2.22,-213.81 6.6,-639.31 -85.62,-1009.84 47.36,-51.62 73.86,-95.63 84.18,-132.97 12.84,-46.54 2.36,-83.43 -24.09,-112.38 -23.61,-25.85 -59.71,-43.56 -102.35,-55.11 -11.2,-3.03 -22.91,-5.65 -35.05,-7.91 -11.11,-63.35 -23.38,-127.18 -35.47,-190.38 -45.75,-238.42 -89.88,-468.46 -60.63,-604.234 25.03,-116.16 39.01,-221.703 54.27,-337.07 7.87,-59.605 16.17,-122.039 27.61,-196.609 2.82,-18.332 3.66,-35.782 2.73,-52.371 16.99,-64.461 18.17,-119.45 7.1,-166.114 C 3823.43,144.434 3765.28,88.6641 3688.11,53.4336 3615.21,20.1563 3525.06,5.625 3435.34,2.89453 3275.57,-1.96094 3113.86,31.1406 3054.92,61.4453 c -131.6,67.6837 -162.04,393.2577 -180.9,595.3277 -2.81,30.145 -5.39,57.508 -8.38,83.922 l -0.11,0.875 c -16.78,146.871 32.47,258.65 58.41,317.58 4.13,9.4 7.67,17.37 9.82,22.93 1.88,44.26 14.69,87.05 61.47,174.51 76.29,142.68 45.5,543.74 38.45,624 -36.32,22.15 -61.09,49.25 -68.52,82.7 -25.61,115.23 70.8,186.51 113.66,211.93 -14.39,145.14 -17.96,289.55 -15.15,423.99 5.14,246.75 31.8,459.71 52.62,582.21 31.18,183.63 -33.6,1019.06 -45.59,1169.17 -10.55,2.15 -19.06,4.47 -25.2,7.01 l -2.77,1.18 c -4.62,2.24 -8.73,4.88 -12.18,7.9 -63.62,55.64 -94.84,584.24 -101.39,709.75 -21,2.57 -41.99,6.04 -62.96,10.34 -32.08,-45.73 -85.44,-169.9 -143.33,-304.68 -98.19,-228.5 -208.82,-486 -288.08,-489.04 -42.07,-1.62 -81.88,21.04 -129.65,58.52 -58.59,-136.18 -255.06,-598.65 -243.75,-649.53 4.74,-21.33 28.59,-56.53 58.93,-101.29 52.02,-76.77 121.74,-179.62 159.93,-310.25 36.14,-123.63 36.33,-309.34 33.23,-478.93 32.07,-35.05 55.36,-71.11 70.86,-107.42 29.09,-68.09 30.81,-136.57 12.18,-201.45 -21.6,-95.81 -43.88,-219.47 -52.4,-328.5 -6.74,-86.14 -5,-161.66 12.49,-203.14 34.47,-81.78 66.45,-128.37 108.07,-189.06 12.68,-18.49 26.26,-38.32 40.68,-60.13 35.95,-54.48 68.44,-122.49 88,-192.3 14,-49.96 21.48,-101.09 19.14,-149.39 85.21,-102.35 94.52,-189.07 28.46,-278.5 -61.17,-82.81 -191.99,-164.903 -392.33,-265.078 -123.7,-61.836 -265.93,-109.52 -403.81,-145.809 -208.46,-54.871 -407.36,-84.078 -517.14,-97.129 -68.57,-8.133 -131.63,8.348 -177.74,39.285 -28.53,19.141 -50.85,44.024 -64.37,72.262 -14.04,29.32 -18.62,62.016 -11.12,95.629 8.35,37.418 31.61,75.453 73.43,110.211 0.53,11.179 1.71,22.519 3.52,33.773 8.56,53.332 31.1,107.126 59.45,137.146 l 9.05,8.77 c 31.43,27.06 81.75,61.22 139.65,100.54 159.86,108.52 380.84,258.56 406.11,403.31 37.88,216.97 -166.15,569.82 -195.13,618.59 l -6.68,4.92 c -53.95,40.76 -91.31,96.4 -101.7,166.76 -7.59,51.31 -0.58,109.93 25.14,175.57 -177.68,379.37 -231.66,720.73 -265.66,935.89 -13.39,84.76 -23.6,149.33 -36.93,186.66 -59.61,166.93 -6.34,1023.61 -4.93,1046.15 -0.56,54.35 45.69,240.98 91.23,411.06 z m 2825,4536.1 c 347.74,-89.45 568.77,-230.26 703.89,-387.5 24.4,-28.37 45.98,-57.27 65,-86.48 v 0.13 c 38.36,-2.68 76.33,-2.63 113.5,0.61 29.93,2.59 59.25,7.29 87.77,14.32 l 16.82,121.7 c -225.87,-24.26 -526.75,166.03 -879.21,388.97 -84.83,53.67 -172.8,109.31 -264.34,164.83 7.14,-42.32 4.48,-85.33 -12.31,-129.53 29.9,-12.48 59.18,-25.37 85.29,-38.03 34.43,-16.68 64.02,-33.42 83.59,-49.02 z m 218.74,-2816.55 c 50.13,12.76 113.35,29.9 140.27,37.26 15.67,39.21 11.76,123.75 6.95,227.37 -7.64,164.97 -17.32,374.75 47.92,555.97 -70.21,30.98 -136.04,76.48 -195.93,135.21 7.59,-58.75 14,-109.66 16.71,-144.31 5.84,-74.03 -5.07,-145.28 -29.23,-195.61 -10.6,-22.06 -23.79,-40.51 -39.25,-53.97 -6.44,-5.61 -13.26,-10.39 -20.48,-14.3 4.97,-72.1 14.53,-156.65 25.66,-240.31 15.37,-115.42 33.75,-229.38 47.38,-307.31 z m -73.78,1037.71 c -22.98,29.39 -44.77,61 -65.29,94.77 -57.26,94.32 -175.41,432.61 -126.56,590.57 22.06,-178.39 66.78,-334.67 128.75,-464.43 111.93,11.13 656.11,79.73 976.68,383.1 -42.88,90.74 -98.13,172.37 -167.29,237.36 -1.64,-45.75 -29.78,-89.58 -72.72,-90.3 30.72,173.67 9.42,400.83 -161.72,599.98 -121.86,141.8 -319.83,269.98 -628.96,356.05 -4.82,-43.56 -33.51,-103.92 -79.64,-174.28 -51.59,-78.68 -125.97,-172.61 -213.16,-270.76 -289.69,-326.05 -724.96,-701.13 -944.94,-725.61 -259.65,-28.9 -1112.33,707.77 -1223.13,804.56 -60.53,-14.81 -293.85,-76.61 -494.25,-198.16 -35.06,-21.27 -79.64,-51.08 -130.07,-86.4 -79.82,-450.64 231.24,-952.09 307.06,-1065.92 114.1,72.86 210.42,166.2 272.87,280.3 1.43,255.76 -11.95,582.95 25.48,701.15 3.42,-97.42 12,-197.98 20.52,-298.38 18.98,-223.13 37.91,-445.73 1.6,-670.64 -11.99,-74.22 -25.34,-145.14 -38.08,-212.97 -34.31,-182.37 -64.43,-342.58 -45.03,-431.1 10.49,-47.63 40.04,-70.64 100.88,-57.31 39.49,8.69 80.61,27.85 118.87,51.15 49.9,30.37 94.99,67.83 126.12,98.96 48.25,48.24 186.72,137.27 352.76,208.41 -120.75,83.77 -300.07,293.63 -230.31,471.84 0.07,-0.76 25.58,-270.6 304.45,-442.07 8.76,3.29 17.55,6.5 26.39,9.63 83.57,29.62 171.06,52.72 255.9,63 -90.44,58.41 -147.87,150.04 -113.87,251.45 46.71,-189.64 212.81,-238.47 286.02,-250.86 217.42,-29.27 431.7,16.05 619.63,55.83 l 1.18,0.23 c 67.61,14.29 131.92,27.87 192.88,37.22 v 0.02 l 0.17,0.02 h 0.04 l 13.66,2.04 c 45.73,8.82 191.26,53.81 233.17,272.34 38.38,-105.15 -20.46,-212.54 -103.04,-276.95 123.06,-29.96 223.46,-127.12 302.52,-203.67 40.23,-38.96 74.45,-72.09 98.92,-83.84 10.36,-4.96 19.69,-6.92 27.89,-6.27 8.6,0.67 16.71,4.56 24.09,10.99 9.23,8.03 17.4,19.63 24.21,33.82 19.53,40.7 28.19,100.44 23.18,164.06 -3.33,42.25 -11.06,101.44 -19.81,168.97 z m 939.71,543.86 c -316.47,-285.72 -818.23,-364.11 -972.42,-382.02 6.62,-11.94 13.4,-23.62 20.32,-35.03 82.79,-136.39 187.5,-234.4 305.02,-286.58 33.91,71.87 159.73,235.82 282.07,202.91 -322.12,-159.63 -304.11,-548.18 -291.82,-813.54 5.75,-123.98 10.32,-223.1 -21.26,-272.93 -4.01,-6.23 -10.22,-11.09 -17.94,-13.22 -0.49,-0.13 -182.14,-50.15 -222.41,-57.03 -22.04,-3.75 -113.64,-43.58 -187.52,-93.8 -42.45,-28.86 -77.5,-59.87 -84.84,-85.89 -11.9,-42.12 0.62,-82.23 13.63,-109.02 72.71,78.69 158.12,152.35 237.62,141.17 -19.88,-21.87 -48.33,-47.53 -79.92,-75.95 -97.65,-87.97 -228.71,-206.04 -180.75,-277.66 16.7,-24.92 31.98,-26.32 48.64,-27.84 18.61,-1.67 38.26,-3.5 62.26,-17.27 23.15,-13.29 34.23,-36.78 46.04,-61.86 8.66,-18.38 18,-38.17 30.73,-47.01 12.29,-8.54 36.4,-9.56 59.25,-10.48 27.72,-1.12 54.25,-2.22 75.91,-15.31 27.63,-16.74 40.81,-42.69 53.55,-67.71 8.33,-16.37 16.39,-32.24 25.31,-36.76 18.88,-9.62 39.61,-10.96 59.45,-7.89 l 0.9,0.16 c 31.22,5.07 60.48,20.62 79.23,33.47 70.91,48.63 134.46,171.04 200.39,298.1 26.71,51.49 53.84,103.79 82.23,152.68 0.96,1.66 2.09,3.24 3.39,4.74 134.26,155.42 238.5,326.08 319.43,484.73 81.16,159.11 138.93,306.29 180.16,414.25 63.57,166.43 42.6,241.95 13.97,345.05 -18.9,68 -40.9,147.16 -47.05,267.36 -7.71,150.35 -37.13,308.63 -93.57,450.18 z M 270.031,10323.1 c 304.25,-168.4 698.848,-124.4 1109.169,-78.6 173.51,19.3 349.85,39.1 525.35,43.4 -1.51,42.2 -3.7,88.3 -6.87,136.5 -225.5,-14.8 -450.07,-47.7 -658.84,-78.2 -412.66,-60.5 -764.871,-112.1 -961.535,2 z M 1906.37,10226 c -171.76,-4.2 -347.48,-23.9 -520.38,-43.1 -415.033,-46.4 -814.404,-90.9 -1133.588,79.2 l -9.207,-31.9 C 500.027,10030.8 956.992,10055 1295.56,10073 l 7.71,0.4 c 40.59,2.1 83.77,4.7 127.08,7.3 155.3,9.4 311.96,18.9 477.25,13.8 0.17,29.8 0.05,75.5 -1.23,131.5 z M 2931.72,703.945 c 115.51,117.285 424.28,364.905 786.39,118.223 -3.17,19.754 -6.51,39.582 -10.14,59.637 -466.74,299.405 -738.73,-80.68 -779.65,-144.032 z m 799.37,31.36 c -292.4,234.82 -552.79,98.164 -692.09,-16.746 2.56,-11.567 4.88,-23.293 6.86,-35.075 3.32,-19.898 5.75,-40.48 6.68,-61.507 l 0.89,-20.301 1.25,-28.574 c 85.8,49.828 181.27,78.265 278.96,86.257 142.9,11.692 290.81,-20.472 420.18,-93.39 l -9.26,69.531 c -4.49,33.949 -8.88,67.02 -13.47,99.805 z m -745.84,-65.223 c -21.66,-21.32 -37.21,-38.93 -45.71,-49.055 3.66,-38.242 7.85,-79.656 13.01,-121.812 13.66,12.133 27.71,23.578 42.13,34.32 -1.23,21.113 -2.18,43.332 -3.13,65.449 l -0.88,20.317 c -0.76,16.941 -2.71,33.969 -5.42,50.781 z m -59.57,167.332 c 4.82,5.703 9.95,11.586 15.39,17.609 -0.95,5.387 -1.8,10.653 -2.43,15.797 -1.3,10.438 -1.87,20.739 -1.43,30.899 l 0.39,10.617 c -5.48,-23.016 -9.79,-48.07 -11.92,-74.922 z m 73.91,75.609 c 133.79,118.047 368.46,233.697 692.21,50.942 l -0.8,3.75 c -31.87,147.925 13.41,384.015 60.37,628.745 10.87,56.7 21.85,113.94 31.91,170.22 -73.48,-6.29 -152.58,-2.96 -214.52,3.59 l -49.48,5.09 c -133.14,13.54 -303.99,30.92 -421.05,74.69 9.69,-131.16 27.14,-481.32 -48.42,-622.59 -58.08,-108.62 -56.34,-137.44 -52.49,-201.73 1.7,-28.437 3.79,-63.195 2.27,-112.707 z m -30.02,-530.601 c 113.15,84.43 445.91,287.152 800.32,70.187 l -5.01,34.051 c -127.66,84.535 -279.86,122.817 -426.38,110.824 -139.09,-11.39 -273.03,-68.32 -375.62,-174.14 2.1,-13.754 4.33,-27.418 6.69,-40.922 z m 801.93,-4.774 c -279,193.352 -549.13,89.395 -693.39,3.032 2.73,-9.985 5.79,-19.617 9.21,-28.809 5.39,-14.476 11.78,-28.191 19.37,-40.832 35.04,-58.496 148.11,-95.383 272.33,-102.726 68.66,-4.051 140.23,1.359 203.84,17.554 61.37,15.621 114.7,41.117 149.41,77.438 19.74,20.675 33.52,45.379 39.23,74.343 z M 3024.02,345.48 c -17.95,-12.679 -31.71,-23.523 -40.85,-31.042 21.85,-95.684 53.19,-173.774 100.13,-197.915 52.46,-26.9605 200.68,-56.3121 350.35,-51.7535 82.23,2.5 164.06,15.4453 228.75,44.9765 60.37,27.551 105.61,70.113 120.55,132.992 2.21,9.367 3.8,19.227 4.69,29.578 -3.34,-4.011 -6.83,-7.902 -10.47,-11.726 -43.46,-45.481 -107.13,-76.594 -179.02,-94.906 -69.68,-17.731 -147.86,-23.664 -222.76,-19.246 -142.77,8.453 -275.82,55.957 -321.84,132.8 -9.51,15.848 -17.52,32.981 -24.23,51.047 -1.87,5 -3.63,10.07 -5.3,15.195 z m 62.45,1760.72 c -33.36,-25.04 -74.28,-69.22 -60.88,-129.56 20.18,-90.88 304.51,-119.81 499.87,-139.65 l 49.6,-5.09 c 86.17,-9.12 206.95,-11.82 291.73,11.13 32.03,8.68 57.97,20.69 72.78,36.9 11.95,13.1 16.45,30.78 10,54.13 -5.94,21.48 -20,47.01 -43.98,77.18 -4.46,-15.3 -9.05,-30.48 -13.88,-45.5 -4.17,-13.03 -16.18,-21.36 -29.16,-21.5 -499.38,-15.74 -750.16,88.92 -750.88,89.22 -10.83,4.49 -17.74,14.42 -18.93,25.3 -2.23,15.79 -4.31,31.61 -6.27,47.44 z m 47.16,2235.97 c 14.37,-181.27 75.4,-984.83 43.79,-1170.93 -20.51,-120.83 -46.82,-330.67 -51.87,-573.23 -3.39,-161.87 2.66,-338.53 26.16,-513.35 60.13,-21.04 287.52,-89.14 687.58,-79.14 116.83,381.21 111.93,857.89 109.54,1087.38 l -0.65,71.54 c 0,179.36 159.83,1033.86 199.62,1243.94 -127.84,-30.36 -298.62,-50.66 -467.72,-62.1 -213.19,-14.42 -426.08,-15.01 -546.45,-4.11 z M 1830.88,1616.84 c 101.51,-13.79 410.07,-82.2 533.14,-410.54 51.69,28.75 97.62,57.84 131.19,85.38 30.47,24.99 50.01,47.27 52.62,64.38 7.39,48.56 0.88,103.11 -14.16,156.78 -17.77,63.43 -47.31,125.25 -80.01,174.8 -14.7,22.25 -27.87,41.46 -40.18,59.42 -43.39,63.27 -76.74,111.85 -113.89,199.98 -21.87,51.85 -24.74,137.15 -17.35,231.77 4.07,51.98 11.19,107.27 19.9,161.49 -7.18,-7.93 -14.67,-15.67 -22.41,-23.26 -55.91,-54.71 -126.18,-100.69 -202.09,-133.08 -100.44,-42.88 -217.28,-56.39 -321.37,-41 -30.42,4.51 -59.86,11.49 -87.61,20.92 66.55,-126.7 176.32,-366.45 162.22,-547.04 z m 552.61,-470.67 c 12.82,-46.01 22.22,-96.47 27.38,-151.834 86.35,51.734 146.59,98.534 180.32,144.214 38.39,51.96 38.64,104.54 0.3,165.41 -13.08,-19.95 -32.6,-40.08 -56.97,-60.06 -39.5,-32.4 -92.47,-65.65 -151.03,-97.73 z m -32.06,-185.975 c -31.73,498.605 -426.5,582.215 -531.38,595.645 -8.41,-27.64 -21.91,-54.92 -39.25,-81.7 120.25,-32.12 427.83,-153.49 480.19,-561.96 32.3,16.531 62.44,32.504 90.44,48.015 z m -149.46,-77.562 c -6.04,59.195 -17.8,111.984 -33.77,159.087 -39.83,-17.45 -78.64,-33.63 -113.93,-47.806 -39.12,-15.707 -73.92,-28.894 -100.91,-38.617 22.33,-43.469 44.16,-92.317 65.12,-147.324 63.6,22.062 125.59,46.855 183.49,74.66 z m -56.56,216.827 c -111.42,243.92 -341.79,307.58 -405.07,320.76 -37.88,-44.59 -84.79,-87.44 -134.84,-127.81 79.37,-20.32 202.56,-85 317.79,-282.16 26.71,9.5 64.14,23.6 107.92,41.17 34.68,13.93 73.51,30.15 114.2,48.04 z m -185.8,-310.999 c -169.49,443.579 -382.59,453.469 -422.93,451.109 -25.88,-19.06 -51.91,-37.42 -77.3,-54.98 94.59,-25.78 239.28,-120.42 349.96,-438.965 l 19.71,5.105 c 43.38,11.426 87.16,23.981 130.56,37.731 z m -210.72,-57.719 c -18.16,51.84 -37.02,97.055 -56.18,136.481 -96.77,-31.395 -200.31,-62.578 -287.24,-81.539 -103.08,-22.508 -186.97,-27.227 -220.59,4.539 l -6.89,7.238 c -8.73,10.141 -15.41,22.293 -20.23,35.812 -12.13,-15.476 -19.56,-30.918 -22.87,-45.777 -4.35,-19.496 -1.68,-38.527 6.49,-55.59 8.68,-18.136 23.62,-34.496 43,-47.508 34.55,-23.171 82.73,-35.425 136.01,-29.105 93.97,11.164 254.1,34.32 428.5,75.449 z m -85.5,192.141 c -126.23,220.277 -256.48,212.157 -282.75,207.967 -49.48,-33.61 -92.14,-63.04 -120.21,-87.19 l -4.44,-4.16 c -20.21,-21.41 -36.71,-62.437 -43.45,-104.398 -6.38,-39.602 -4,-78.125 12.53,-97.356 l 2.28,-2.375 c 15.97,-15.09 80.62,-7.43 165.02,10.988 81.98,17.891 179.16,46.907 271.02,76.524 z m -136.2,1555.907 c -6.49,-31.05 -7.44,-59.38 -3.66,-84.95 7.8,-52.82 36.36,-95.01 77.68,-126.23 43.39,-32.75 100.94,-53.93 164.04,-63.27 93.47,-13.82 198.2,-1.75 288.13,36.63 68.98,29.44 132.6,70.99 182.92,120.23 46.79,45.78 81.99,98 99.02,152.96 l 1.54,5.21 c 2.05,9.01 4.09,17.77 6.12,26.25 7.74,43.81 3.6,89.19 -15.66,134.27 -4.45,10.43 -9.72,20.9 -15.85,31.34 -0.61,-32.98 -1.09,-65.66 -1.09,-100.02 0,-104.34 -82.05,-196.59 -191.33,-260.17 l -1.74,-1.09 c -48.25,-27.86 -101.81,-50.29 -155.57,-65.7 -54.19,-15.53 -108.99,-24.09 -159.26,-24.09 -91.65,0 -169.76,28.37 -207.62,93.94 -24.16,41.86 -46.66,83.45 -67.67,124.69 z m -288.63,2194.03 c -10.77,-190.19 -43.15,-835.12 4.63,-968.96 14.83,-41.55 25.53,-109.22 39.57,-198.07 39.39,-249.27 106.05,-670.9 365.68,-1120.66 25.4,-43.85 83.71,-62.84 154.04,-62.84 44.6,0 93.57,7.69 142.29,21.65 49.14,14.09 97.86,34.46 141.48,59.64 l 1.64,0.88 c 91.59,53.25 160.37,127.17 160.37,206.75 0,38.15 1.08,89.26 2.19,142.91 3.73,179.64 8.09,390.06 -29.64,519.16 -35.46,121.28 -102.02,219.48 -151.69,292.78 -34.08,50.27 -60.87,89.78 -68.16,122.62 -15.89,71.5 206.4,592.37 254.56,703.98 l -18.65,15.97 c -81.53,69.93 -191.12,163.98 -353.27,249.01 -184.32,96.65 -389.31,56.88 -521.55,31.2 -42.03,-8.13 -77.18,-14.98 -104.86,-16.13 -6.6,-0.26 -12.82,-0.25 -18.63,0.11 z m 712.8,4841.42 11.26,11.81 -12.91,-8.76 z m 1219.7,2019.66 c -92.37,168.7 -262.22,323.8 -596.29,300.9 -28.93,-2 -56.79,-5.6 -83.45,-10.6 l -1.07,-0.3 c -233.17,-44.5 -384.09,-202.9 -474.1,-389.5 -91.33,-189.2 -120.46,-407.1 -109.5,-566.6 2.06,-30.2 5.62,-58.4 10.46,-83.7 31.9,-166.9 44.67,-357.4 49.56,-501.7 17.96,63.5 37.31,129.9 57.49,199.1 40.11,137.6 83.61,286.8 126.68,449.3 210.39,793.7 621.91,761.1 629.48,760.5 24.5,0 229.23,-4.9 390.74,-157.4 z M 1890.32,9986.86 1532.13,9844.21 c -87.41,-34.93 -154.02,-61.69 -169.29,-68.24 -6.9,-2.96 -55.96,-44.22 -131.21,-109.39 -87.27,-75.57 -204.56,-179.35 -330.985,-292.11 l 0.742,-0.78 c 36.093,-38.19 70.359,-86.4 74.746,-102.49 1.797,-6.16 5.316,-22.58 7.851,-43.37 229.556,163.33 447.156,322.46 555.166,401.42 l 67.28,49.04 c 22.7,16.2 64.16,40.06 112.88,66.35 43.37,23.4 93.33,49.22 140.9,73.34 6.66,52.54 16.93,108.85 30.11,168.88 z m -37.08,-241.97 c -35.74,-18.35 -71.81,-37.17 -104.55,-54.83 -46.82,-25.27 -86.11,-47.77 -106.34,-62.23 l -66.58,-48.54 c -113.23,-82.8 -347.09,-253.81 -589.934,-426.16 -0.828,-9.05 -2.133,-18.03 -4.051,-26.72 -7.43,-34.18 -23.773,-63.78 -54.972,-78.22 1.105,-8.33 1.863,-16.89 2.148,-25.53 0.934,-28.54 -3.258,-57.67 -16.941,-83.25 88.94,64.55 168.55,119.75 224.66,153.79 211.41,128.2 456.82,192.29 515.25,206.38 22.17,34.65 95.66,140.71 221.65,238.43 -19.42,58.81 -25.13,127.87 -20.34,206.88 z M 3710.42,7272.03 c -0.32,-2.19 -119.76,-762.02 -46.47,-1428.57 -134.47,263.99 -121.25,1095.64 46.47,1428.57 z m 608.19,-2224.32 c -3.13,0.06 -6.28,0.16 -9.5,0.37 -45.36,2.94 -97.61,24.93 -160.66,51.49 -20.58,8.66 -42.52,17.92 -69.67,28.57 -116.46,45.73 -332.07,16.86 -562.76,-14.07 -176.99,-23.71 -362.7,-48.59 -524.59,-42.53 6.9,-133.39 34.63,-612.52 79.02,-657.33 49.16,-21.91 324.36,-25.09 605.51,-6.06 280.69,19 562.96,59.74 620.22,125.18 1.89,2.15 3.3,4.15 4.12,5.9 43.67,91.15 34.59,206.89 25.43,323.42 -4.86,61.96 -9.76,124.21 -7.12,185.06 z m -1515.56,54.34 c -193.03,53.75 -383.59,169.39 -565.44,279.75 -118.54,71.93 -233.36,141.61 -341.92,189.41 -152.89,67.36 -258.5,60.1 -332.54,22.21 -72.62,-37.15 -117.2,-104.94 -146.18,-160.46 -12.96,-44.9 -178.78,-619.96 -175.29,-703.99 0.14,-3.75 4.63,5.28 13.08,5.62 22.15,0.91 55.62,7.43 95.63,15.18 140.44,27.27 358.15,69.49 561.84,-37.3 168.93,-88.57 281.32,-185.02 364.93,-256.76 70.75,-60.73 119.09,-102.18 155.44,-100.79 39.85,1.52 142.33,240.04 233.25,451.69 51.81,120.57 100.09,232.95 137.2,295.44 z M 656,8624.4 l 8.77,13.29 c 15.722,23.9 34.687,52.76 57.031,83.1 -29.371,-22.3 -58.563,-44.57 -87.141,-66.47 6.602,-10.22 13.766,-20.16 21.34,-29.92 z m 309.426,235.12 c -115.719,-53.23 -199.692,-180.89 -248.961,-255.81 -6.848,-10.42 -13.102,-19.92 -18.735,-28.21 7.625,-8.36 15.372,-16.69 23.172,-25.07 228.782,-196.95 221.071,-449.36 43.493,-639.12 135.441,355.68 19.722,480.12 -88.887,596.89 -32.328,34.76 -64.094,68.91 -90.137,108.23 -173.594,-133.79 -313.312,-244.9 -314.195,-245.59 -5.844,-4.61 -12.852,-6.79 -19.774,-6.65 l -99.996,2.11 c 64.059,-255.55 174.692,-519.87 270.457,-649.72 61.473,-83.36 170.762,-48.1 219.61,-32.35 14.547,4.69 25.179,8.14 34.14,8.32 191.91,3.96 405.637,52.94 588.077,148.06 l 28.82,15.57 c -76.05,114.98 -352.244,565.11 -327.084,1003.34 z m -586.102,80.98 c 58.567,-4.58 167.93,-13.87 196.504,-21.75 l 3.875,-1.04 c 15.723,-4.35 39.18,-10.86 57.684,-10.65 7.98,0.09 15.109,2.38 18.418,9.26 l -26.289,27.42 -1.481,1.69 c -25.316,26.45 -45.39,47.44 -46.64,48.14 -11.254,6.43 -159.602,49.41 -160.024,49.52 54.832,33.03 118.152,40.19 190.59,4.36 8.559,-4.88 31.73,-29 60.695,-59.29 l 1.762,-1.7 c 45.395,-47.48 106.02,-110.83 122.801,-119.95 l 0.98,-0.44 c 0.321,-0.14 3.578,1.23 8.153,3.43 6.976,3.33 14.16,8.84 20.093,15.43 5.106,5.69 8.875,11.73 10,17.08 0.422,1.99 0.301,3.78 -0.582,5 -8.183,11.16 -27.164,39.12 -49.898,72.6 -50.43,74.27 -120.613,177.61 -130.211,183.72 -14.949,9.51 -144.352,26.52 -144.703,26.55 24.035,43.04 108.605,69.71 177.945,25.6 20.32,-12.94 94.731,-122.48 148.172,-201.18 l 24.352,-35.78 c 4.632,12.99 6.039,27.61 5.566,42.2 -1.023,31.33 -10.742,63.2 -17.695,82.88 -11.164,31.52 -78.164,128.67 -101.563,162.14 l -129.265,15.05 c 33.015,40.18 151.167,61.95 172.121,31.84 0.281,-0.37 100.296,-140.62 117.199,-188.39 l 3.363,-9.86 c 4.629,6.64 7.817,15.41 9.945,25.11 5.516,24.58 4.247,54.37 1.571,77.93 -2.098,18.38 -5.09,32.49 -6.446,37.51 -2.304,8.75 -29.722,44.18 -60.078,76.29 -20.726,21.92 -41.273,40.52 -52.386,43.69 -14.332,4.08 -78.954,-7.05 -149.633,-22.73 -78.301,-17.38 -160.989,-40.47 -192.875,-55.61 l -2.043,-1.13 C 435.953,9283.79 376.488,9220.22 314.141,9147.22 233.266,9052.57 149.855,8944.09 131.227,8908.91 108.672,8866.28 98.4922,8806.27 98,8735.28 l 199.184,180.25 c 12.339,11.18 33.312,28.79 82.14,24.97 z m 323.02,-71.47 c -15.09,-17.38 -38.563,-23.54 -64.215,-23.84 -22.664,-0.28 -45.906,5.03 -64.039,9.86 C 424.945,8744.38 303.91,8658.7 263.48,8630.25 l 14.653,-175.03 c 86.437,68.21 283.609,222.94 475.449,367.01 -14.121,11.14 -32.082,27.89 -51.238,46.8 z m -213.813,-0.19 c -50.258,5.12 -111.461,9.75 -137.679,11.67 l -229.786,-207.46 100.032,2.94 c 28.015,19.65 129.578,91.3 267.433,192.85 z m -351.828,-440.33 81.508,-1.74 -15.566,186.75 -97.27,-2.84 c 6.59,-57.7 17.363,-119.19 31.328,-182.17 z M 2930.15,5513.71 c -4.86,587.54 -251.11,933.12 -251.79,934.12 214.55,-120.72 355.61,-699.6 251.79,-934.12"
         style="fill:#421414;fill-opacity:1;fill-rule:nonzero;stroke:none"
         id="path176" />
      <path
         d="m 2655.04,11250 c 45.39,0 82.2,-48.6 82.2,-108.6 0,-60 -36.81,-108.6 -82.2,-108.6 -45.4,0 -82.21,48.6 -82.21,108.6 0,60 36.81,108.6 82.21,108.6"
         style="fill:#421414;fill-opacity:1;fill-rule:evenodd;stroke:none"
         id="path178" />
      <path
         d="m 3078.27,11237.1 c 36.03,0 65.24,-38.6 65.24,-86.2 0,-47.5 -29.21,-86.1 -65.24,-86.1 -36.02,0 -65.23,38.6 -65.23,86.1 0,47.6 29.21,86.2 65.23,86.2"
         style="fill:#421414;fill-opacity:1;fill-rule:evenodd;stroke:none"
         id="path180" />
      <path
         d="m 2661.27,11360.8 c 90.51,0 102.27,-50.5 86.97,-96.3 -0.1,0.1 -41.82,34.2 -86.97,34.2 -42.62,0 -112.19,-43.5 -140.07,-61 l -6.9,-4.3 c 19.69,54 43.88,127.4 146.97,127.4"
         style="fill:#421414;fill-opacity:1;fill-rule:nonzero;stroke:none"
         id="path182" />
      <path
         d="m 3171.33,11237 c -0.18,0.1 -64.66,61.7 -89.01,61.7 -22.91,0 -48.62,-31 -48.67,-31.1 -25.35,36.1 -11.23,92.2 48.67,93.2 50.99,0 130.51,-78 130.74,-78.2 l -41.73,-45.6"
         style="fill:#421414;fill-opacity:1;fill-rule:nonzero;stroke:none"
         id="path184" />
      <path
         d="m 2634.18,11213.1 c 16.55,0 29.96,-17.7 29.96,-39.6 0,-21.9 -13.41,-39.6 -29.96,-39.6 -16.55,0 -29.98,17.7 -29.98,39.6 0,21.9 13.43,39.6 29.98,39.6"
         style="fill:#ffffff;fill-opacity:1;fill-rule:evenodd;stroke:none"
         id="path186" />
      <path
         d="m 3060.43,11212.1 c 13.96,0 25.29,-14.9 25.29,-33.4 0,-18.4 -11.33,-33.4 -25.29,-33.4 -13.97,0 -25.29,15 -25.29,33.4 0,18.5 11.32,33.4 25.29,33.4"
         style="fill:#ffffff;fill-opacity:1;fill-rule:evenodd;stroke:none"
         id="path188" />
    </g>
  </g>
</svg>
